<svg xmlns="http://www.w3.org/2000/svg" xmlns:xlink="http://www.w3.org/1999/xlink" width="400" zoomAndPan="magnify" viewBox="0 0 300 225" height="300" preserveAspectRatio="xMidYMid meet" version="1.0"><defs><g/><clipPath id="688eab40a6"><path d="M 208 69 L 217 69 L 217 91 L 208 91 Z M 208 69 " clip-rule="nonzero"/></clipPath><clipPath id="49bdc90474"><path d="M 216.070312 91.441406 L 192.484375 83.941406 L 198.390625 65.359375 L 221.980469 72.859375 Z M 216.070312 91.441406 " clip-rule="nonzero"/></clipPath><clipPath id="115df4db81"><path d="M 216.070312 91.441406 L 192.484375 83.941406 L 198.390625 65.359375 L 221.980469 72.859375 Z M 216.070312 91.441406 " clip-rule="nonzero"/></clipPath><clipPath id="f4a326ed79"><path d="M 198 66 L 206 66 L 206 69 L 198 69 Z M 198 66 " clip-rule="nonzero"/></clipPath><clipPath id="803fb2c7b4"><path d="M 216.070312 91.441406 L 192.484375 83.941406 L 198.390625 65.359375 L 221.980469 72.859375 Z M 216.070312 91.441406 " clip-rule="nonzero"/></clipPath><clipPath id="e6e798b2c1"><path d="M 216.070312 91.441406 L 192.484375 83.941406 L 198.390625 65.359375 L 221.980469 72.859375 Z M 216.070312 91.441406 " clip-rule="nonzero"/></clipPath><clipPath id="36c11b8f8a"><path d="M 217 83 L 219 83 L 219 87 L 217 87 Z M 217 83 " clip-rule="nonzero"/></clipPath><clipPath id="1b548ac0e6"><path d="M 216.070312 91.441406 L 192.484375 83.941406 L 198.390625 65.359375 L 221.980469 72.859375 Z M 216.070312 91.441406 " clip-rule="nonzero"/></clipPath><clipPath id="477d576079"><path d="M 216.070312 91.441406 L 192.484375 83.941406 L 198.390625 65.359375 L 221.980469 72.859375 Z M 216.070312 91.441406 " clip-rule="nonzero"/></clipPath><clipPath id="80a5628fa7"><path d="M 212 70 L 219 70 L 219 82 L 212 82 Z M 212 70 " clip-rule="nonzero"/></clipPath><clipPath id="5a093d574f"><path d="M 216.070312 91.441406 L 192.484375 83.941406 L 198.390625 65.359375 L 221.980469 72.859375 Z M 216.070312 91.441406 " clip-rule="nonzero"/></clipPath><clipPath id="44f8bded4b"><path d="M 216.070312 91.441406 L 192.484375 83.941406 L 198.390625 65.359375 L 221.980469 72.859375 Z M 216.070312 91.441406 " clip-rule="nonzero"/></clipPath></defs><rect x="-30" width="360" fill="#ffffff" y="-22.5" height="270" fill-opacity="1"/><rect x="-30" width="360" fill="#0b0f1e" y="-22.5" height="270" fill-opacity="1"/><g fill="#7dd3fc" fill-opacity="1"><g transform="translate(40.152179, 146.870615)"><g><path d="M 24.359375 -6.1875 C 24.859375 -6.1875 25.195312 -6.078125 25.375 -5.859375 C 25.550781 -5.640625 25.640625 -5.320312 25.640625 -4.90625 L 25.640625 -1.28125 C 25.640625 -0.894531 25.550781 -0.582031 25.375 -0.34375 C 25.195312 -0.113281 24.859375 0 24.359375 0 L 4.546875 0 C 4.046875 0 3.707031 -0.113281 3.53125 -0.34375 C 3.351562 -0.582031 3.265625 -0.894531 3.265625 -1.28125 L 3.265625 -27.8125 C 3.265625 -28.226562 3.351562 -28.546875 3.53125 -28.765625 C 3.707031 -28.984375 4.046875 -29.09375 4.546875 -29.09375 L 23.609375 -29.09375 C 24.109375 -29.09375 24.445312 -28.984375 24.625 -28.765625 C 24.800781 -28.546875 24.890625 -28.226562 24.890625 -27.8125 L 24.890625 -24.140625 C 24.890625 -23.753906 24.800781 -23.441406 24.625 -23.203125 C 24.445312 -22.972656 24.109375 -22.859375 23.609375 -22.859375 L 10.265625 -22.859375 L 10.265625 -18.046875 L 22.109375 -18.046875 C 22.609375 -18.046875 22.945312 -17.929688 23.125 -17.703125 C 23.300781 -17.484375 23.390625 -17.171875 23.390625 -16.765625 L 23.390625 -13.3125 C 23.390625 -12.925781 23.300781 -12.613281 23.125 -12.375 C 22.945312 -12.144531 22.609375 -12.03125 22.109375 -12.03125 L 10.265625 -12.03125 L 10.265625 -6.1875 Z M 24.359375 -6.1875 "/></g></g></g><g fill="#7dd3fc" fill-opacity="1"><g transform="translate(67.867559, 146.870615)"><g><path d="M 29.359375 -29.140625 C 29.859375 -29.140625 30.195312 -29.03125 30.375 -28.8125 C 30.550781 -28.59375 30.640625 -28.273438 30.640625 -27.859375 L 30.640625 -1.28125 C 30.640625 -0.78125 30.53125 -0.441406 30.3125 -0.265625 C 30.09375 -0.0859375 29.773438 0 29.359375 0 L 25.109375 0 C 24.734375 0 24.425781 -0.0859375 24.1875 -0.265625 C 23.945312 -0.441406 23.828125 -0.78125 23.828125 -1.28125 L 23.828125 -16.265625 L 19.40625 -8.53125 C 19.289062 -8.351562 19.128906 -8.15625 18.921875 -7.9375 C 18.710938 -7.71875 18.445312 -7.609375 18.125 -7.609375 L 15.921875 -7.609375 C 15.597656 -7.609375 15.335938 -7.71875 15.140625 -7.9375 C 14.953125 -8.15625 14.800781 -8.351562 14.6875 -8.53125 L 10.21875 -16.265625 L 10.21875 -1.28125 C 10.21875 -0.78125 10.101562 -0.441406 9.875 -0.265625 C 9.65625 -0.0859375 9.34375 0 8.9375 0 L 4.546875 0 C 4.171875 0 3.863281 -0.0859375 3.625 -0.265625 C 3.382812 -0.441406 3.265625 -0.78125 3.265625 -1.28125 L 3.265625 -27.859375 C 3.265625 -28.273438 3.351562 -28.59375 3.53125 -28.8125 C 3.707031 -29.03125 4.046875 -29.140625 4.546875 -29.140625 L 8.9375 -29.140625 C 9.695312 -29.140625 10.179688 -28.953125 10.390625 -28.578125 C 10.597656 -28.210938 10.789062 -27.898438 10.96875 -27.640625 L 17.03125 -16.765625 L 23.125 -27.640625 C 23.269531 -27.898438 23.453125 -28.210938 23.671875 -28.578125 C 23.898438 -28.953125 24.378906 -29.140625 25.109375 -29.140625 Z M 29.359375 -29.140625 "/></g></g></g><g fill="#7dd3fc" fill-opacity="1"><g transform="translate(101.771377, 146.870615)"><g/></g></g><g fill="#7dd3fc" fill-opacity="1"><g transform="translate(113.750434, 146.870615)"><g><path d="M 24.015625 -15.078125 C 24.097656 -15.046875 24.351562 -14.90625 24.78125 -14.65625 C 25.207031 -14.40625 25.671875 -14.03125 26.171875 -13.53125 C 26.671875 -13.03125 27.113281 -12.363281 27.5 -11.53125 C 27.882812 -10.707031 28.078125 -9.691406 28.078125 -8.484375 C 28.078125 -6.628906 27.625 -5.066406 26.71875 -3.796875 C 25.820312 -2.535156 24.585938 -1.585938 23.015625 -0.953125 C 21.441406 -0.316406 19.625 0 17.5625 0 L 4.546875 0 C 4.046875 0 3.707031 -0.113281 3.53125 -0.34375 C 3.351562 -0.582031 3.265625 -0.894531 3.265625 -1.28125 L 3.265625 -27.859375 C 3.265625 -28.273438 3.351562 -28.59375 3.53125 -28.8125 C 3.707031 -29.03125 4.046875 -29.140625 4.546875 -29.140625 L 16.9375 -29.140625 C 19.351562 -29.140625 21.3125 -28.765625 22.8125 -28.015625 C 24.320312 -27.265625 25.4375 -26.273438 26.15625 -25.046875 C 26.875 -23.828125 27.234375 -22.523438 27.234375 -21.140625 C 27.234375 -19.660156 26.988281 -18.484375 26.5 -17.609375 C 26.019531 -16.742188 25.519531 -16.117188 25 -15.734375 C 24.488281 -15.359375 24.160156 -15.140625 24.015625 -15.078125 Z M 17.640625 -6.28125 C 18.734375 -6.28125 19.570312 -6.507812 20.15625 -6.96875 C 20.75 -7.425781 21.046875 -8.15625 21.046875 -9.15625 C 21.046875 -10.1875 20.695312 -10.890625 20 -11.265625 C 19.3125 -11.648438 18.4375 -11.84375 17.375 -11.84375 L 16.359375 -11.84375 C 15.859375 -11.84375 15.519531 -11.960938 15.34375 -12.203125 C 15.164062 -12.441406 15.078125 -12.753906 15.078125 -13.140625 L 15.078125 -16.5 C 15.078125 -16.90625 15.164062 -17.21875 15.34375 -17.4375 C 15.519531 -17.664062 15.859375 -17.78125 16.359375 -17.78125 L 16.9375 -17.78125 C 18.226562 -17.78125 19.160156 -18.003906 19.734375 -18.453125 C 20.316406 -18.910156 20.609375 -19.566406 20.609375 -20.421875 C 20.609375 -21.429688 20.28125 -22.097656 19.625 -22.421875 C 18.976562 -22.742188 18.082031 -22.90625 16.9375 -22.90625 L 10.21875 -22.90625 L 10.21875 -6.28125 Z M 17.640625 -6.28125 "/></g></g></g><g fill="#7dd3fc" fill-opacity="1"><g transform="translate(144.118006, 146.870615)"><g><path d="M 27.109375 -1.421875 C 27.316406 -1.117188 27.359375 -0.804688 27.234375 -0.484375 C 27.117188 -0.160156 26.851562 0 26.4375 0 L 21.21875 0 C 20.6875 0 20.265625 -0.101562 19.953125 -0.3125 C 19.648438 -0.519531 19.335938 -0.859375 19.015625 -1.328125 L 14.234375 -8.453125 C 14.023438 -8.710938 13.890625 -8.992188 13.828125 -9.296875 C 13.773438 -9.609375 13.75 -10.078125 13.75 -10.703125 L 13.75 -14.234375 C 13.75 -14.648438 13.835938 -14.96875 14.015625 -15.1875 C 14.191406 -15.40625 14.53125 -15.515625 15.03125 -15.515625 L 15.921875 -15.515625 C 17.015625 -15.515625 17.988281 -15.851562 18.84375 -16.53125 C 19.695312 -17.21875 20.125 -18.078125 20.125 -19.109375 C 20.125 -20.253906 19.734375 -21.164062 18.953125 -21.84375 C 18.171875 -22.519531 17.203125 -22.859375 16.046875 -22.859375 L 10.171875 -22.859375 L 10.171875 -1.28125 C 10.171875 -0.78125 10.054688 -0.441406 9.828125 -0.265625 C 9.609375 -0.0859375 9.296875 0 8.890625 0 L 4.515625 0 C 4.128906 0 3.820312 -0.0859375 3.59375 -0.265625 C 3.375 -0.441406 3.265625 -0.78125 3.265625 -1.28125 L 3.265625 -27.765625 C 3.265625 -28.179688 3.347656 -28.5 3.515625 -28.71875 C 3.679688 -28.9375 4.015625 -29.046875 4.515625 -29.046875 L 15.65625 -29.046875 C 17.269531 -29.046875 18.609375 -28.941406 19.671875 -28.734375 C 20.734375 -28.535156 21.640625 -28.222656 22.390625 -27.796875 C 23.148438 -27.367188 23.835938 -26.84375 24.453125 -26.21875 C 25.273438 -25.425781 25.90625 -24.425781 26.34375 -23.21875 C 26.789062 -22.007812 27.015625 -20.695312 27.015625 -19.28125 C 27.015625 -17.75 26.691406 -16.378906 26.046875 -15.171875 C 25.398438 -13.960938 24.601562 -12.957031 23.65625 -12.15625 C 22.707031 -11.363281 21.78125 -10.804688 20.875 -10.484375 Z M 27.109375 -1.421875 "/></g></g></g><g fill="#7dd3fc" fill-opacity="1"><g transform="translate(173.557313, 146.870615)"><g><path d="M 24.359375 -6.1875 C 24.859375 -6.1875 25.195312 -6.078125 25.375 -5.859375 C 25.550781 -5.640625 25.640625 -5.320312 25.640625 -4.90625 L 25.640625 -1.28125 C 25.640625 -0.894531 25.550781 -0.582031 25.375 -0.34375 C 25.195312 -0.113281 24.859375 0 24.359375 0 L 4.546875 0 C 4.046875 0 3.707031 -0.113281 3.53125 -0.34375 C 3.351562 -0.582031 3.265625 -0.894531 3.265625 -1.28125 L 3.265625 -27.8125 C 3.265625 -28.226562 3.351562 -28.546875 3.53125 -28.765625 C 3.707031 -28.984375 4.046875 -29.09375 4.546875 -29.09375 L 23.609375 -29.09375 C 24.109375 -29.09375 24.445312 -28.984375 24.625 -28.765625 C 24.800781 -28.546875 24.890625 -28.226562 24.890625 -27.8125 L 24.890625 -24.140625 C 24.890625 -23.753906 24.800781 -23.441406 24.625 -23.203125 C 24.445312 -22.972656 24.109375 -22.859375 23.609375 -22.859375 L 10.265625 -22.859375 L 10.265625 -18.046875 L 22.109375 -18.046875 C 22.609375 -18.046875 22.945312 -17.929688 23.125 -17.703125 C 23.300781 -17.484375 23.390625 -17.171875 23.390625 -16.765625 L 23.390625 -13.3125 C 23.390625 -12.925781 23.300781 -12.613281 23.125 -12.375 C 22.945312 -12.144531 22.609375 -12.03125 22.109375 -12.03125 L 10.265625 -12.03125 L 10.265625 -6.1875 Z M 24.359375 -6.1875 "/></g></g></g><g fill="#7dd3fc" fill-opacity="1"><g transform="translate(201.272693, 146.870615)"><g><path d="M 26.484375 -29.09375 C 26.898438 -29.09375 27.164062 -28.953125 27.28125 -28.671875 C 27.394531 -28.390625 27.394531 -28.101562 27.28125 -27.8125 L 17.8125 -1.328125 C 17.550781 -0.765625 17.3125 -0.398438 17.09375 -0.234375 C 16.875 -0.078125 16.507812 0 16 0 L 11.765625 0 C 11.296875 0 10.941406 -0.078125 10.703125 -0.234375 C 10.460938 -0.398438 10.210938 -0.765625 9.953125 -1.328125 L 0.4375 -27.8125 C 0.320312 -28.101562 0.320312 -28.390625 0.4375 -28.671875 C 0.5625 -28.953125 0.828125 -29.09375 1.234375 -29.09375 L 6.140625 -29.09375 C 6.734375 -29.09375 7.140625 -28.988281 7.359375 -28.78125 C 7.578125 -28.582031 7.773438 -28.21875 7.953125 -27.6875 L 13.96875 -9.375 L 19.9375 -27.6875 C 20.113281 -28.21875 20.320312 -28.582031 20.5625 -28.78125 C 20.800781 -28.988281 21.210938 -29.09375 21.796875 -29.09375 Z M 26.484375 -29.09375 "/></g></g></g><g fill="#7dd3fc" fill-opacity="1"><g transform="translate(229.385904, 146.870615)"><g><path d="M 24.359375 -6.1875 C 24.859375 -6.1875 25.195312 -6.078125 25.375 -5.859375 C 25.550781 -5.640625 25.640625 -5.320312 25.640625 -4.90625 L 25.640625 -1.28125 C 25.640625 -0.894531 25.550781 -0.582031 25.375 -0.34375 C 25.195312 -0.113281 24.859375 0 24.359375 0 L 4.546875 0 C 4.046875 0 3.707031 -0.113281 3.53125 -0.34375 C 3.351562 -0.582031 3.265625 -0.894531 3.265625 -1.28125 L 3.265625 -27.8125 C 3.265625 -28.226562 3.351562 -28.546875 3.53125 -28.765625 C 3.707031 -28.984375 4.046875 -29.09375 4.546875 -29.09375 L 23.609375 -29.09375 C 24.109375 -29.09375 24.445312 -28.984375 24.625 -28.765625 C 24.800781 -28.546875 24.890625 -28.226562 24.890625 -27.8125 L 24.890625 -24.140625 C 24.890625 -23.753906 24.800781 -23.441406 24.625 -23.203125 C 24.445312 -22.972656 24.109375 -22.859375 23.609375 -22.859375 L 10.265625 -22.859375 L 10.265625 -18.046875 L 22.109375 -18.046875 C 22.609375 -18.046875 22.945312 -17.929688 23.125 -17.703125 C 23.300781 -17.484375 23.390625 -17.171875 23.390625 -16.765625 L 23.390625 -13.3125 C 23.390625 -12.925781 23.300781 -12.613281 23.125 -12.375 C 22.945312 -12.144531 22.609375 -12.03125 22.109375 -12.03125 L 10.265625 -12.03125 L 10.265625 -6.1875 Z M 24.359375 -6.1875 "/></g></g></g><g fill="#7dd3fc" fill-opacity="1"><g transform="translate(72.939811, 87.17351)"><g><path d="M 8.46875 -4.34375 C 8.46875 -4.820312 8.289062 -5.238281 7.9375 -5.59375 C 7.582031 -5.957031 7.15625 -6.140625 6.65625 -6.140625 L 4.578125 -6.140625 L 4.578125 -2.546875 L 6.65625 -2.546875 C 7.15625 -2.546875 7.582031 -2.722656 7.9375 -3.078125 C 8.289062 -3.429688 8.46875 -3.851562 8.46875 -4.34375 Z M 7.4375 -10.546875 C 7.4375 -11.023438 7.265625 -11.429688 6.921875 -11.765625 C 6.585938 -12.097656 6.1875 -12.265625 5.71875 -12.265625 L 4.578125 -12.265625 L 4.578125 -8.8125 L 5.71875 -8.8125 C 6.1875 -8.8125 6.585938 -8.984375 6.921875 -9.328125 C 7.265625 -9.671875 7.4375 -10.078125 7.4375 -10.546875 Z M 11.8125 -4.25 C 11.8125 -2.96875 11.414062 -1.9375 10.625 -1.15625 C 9.84375 -0.382812 8.738281 0 7.3125 0 L 1.3125 0 L 1.3125 -14.84375 L 6.421875 -14.84375 C 7.265625 -14.84375 7.992188 -14.675781 8.609375 -14.34375 C 9.222656 -14.007812 9.703125 -13.5625 10.046875 -13 C 10.390625 -12.4375 10.5625 -11.8125 10.5625 -11.125 C 10.5625 -10.375 10.40625 -9.722656 10.09375 -9.171875 C 9.78125 -8.628906 9.347656 -8.234375 8.796875 -7.984375 C 9.628906 -7.796875 10.335938 -7.378906 10.921875 -6.734375 C 11.515625 -6.085938 11.8125 -5.257812 11.8125 -4.25 Z M 11.8125 -4.25 "/></g></g></g><g fill="#7dd3fc" fill-opacity="1"><g transform="translate(84.969301, 87.17351)"><g><path d="M 9.46875 -14.84375 L 12.96875 -14.84375 L 12.96875 0 L 9.46875 0 L 9.46875 -5.953125 L 4.578125 -5.953125 L 4.578125 0 L 1.3125 0 L 1.3125 -14.84375 L 4.578125 -14.84375 L 4.578125 -8.921875 L 9.46875 -8.921875 Z M 9.46875 -14.84375 "/></g></g></g><g fill="#7dd3fc" fill-opacity="1"><g transform="translate(99.247499, 87.17351)"><g><path d="M 4.578125 -6.640625 L 4.578125 0 L 1.3125 0 L 1.3125 -14.84375 L 4.578125 -14.84375 L 4.578125 -8.203125 L 9.28125 -14.84375 L 13.46875 -14.84375 L 7.765625 -7.421875 L 13.6875 0 L 9.28125 0 Z M 4.578125 -6.640625 "/></g></g></g><g fill="#7dd3fc" fill-opacity="1"><g transform="translate(112.717905, 87.17351)"><g/></g></g><g fill="#7dd3fc" fill-opacity="1"><g transform="translate(118.175935, 87.17351)"><g><path d="M 4.546875 -3.015625 L 5.515625 -3.015625 C 6.359375 -3.015625 7.097656 -3.207031 7.734375 -3.59375 C 8.367188 -3.988281 8.863281 -4.519531 9.21875 -5.1875 C 9.570312 -5.863281 9.75 -6.609375 9.75 -7.421875 C 9.75 -8.253906 9.570312 -9 9.21875 -9.65625 C 8.863281 -10.320312 8.367188 -10.847656 7.734375 -11.234375 C 7.097656 -11.617188 6.359375 -11.8125 5.515625 -11.8125 L 4.546875 -11.8125 Z M 1.3125 -14.84375 L 5.71875 -14.84375 C 6.769531 -14.84375 7.738281 -14.648438 8.625 -14.265625 C 9.519531 -13.890625 10.300781 -13.367188 10.96875 -12.703125 C 11.644531 -12.035156 12.164062 -11.25 12.53125 -10.34375 C 12.90625 -9.445312 13.09375 -8.472656 13.09375 -7.421875 C 13.09375 -6.367188 12.90625 -5.390625 12.53125 -4.484375 C 12.164062 -3.585938 11.648438 -2.804688 10.984375 -2.140625 C 10.328125 -1.472656 9.546875 -0.945312 8.640625 -0.5625 C 7.742188 -0.1875 6.769531 0 5.71875 0 L 1.3125 0 Z M 1.3125 -14.84375 "/></g></g></g><g fill="#7dd3fc" fill-opacity="1"><g transform="translate(132.039318, 87.17351)"><g><path d="M 4.28125 -5.953125 L 8.578125 -5.953125 C 8.578125 -5.953125 8.554688 -6.039062 8.515625 -6.21875 C 8.484375 -6.40625 8.394531 -6.613281 8.25 -6.84375 C 8.113281 -7.082031 7.898438 -7.289062 7.609375 -7.46875 C 7.328125 -7.65625 6.9375 -7.75 6.4375 -7.75 C 5.925781 -7.75 5.523438 -7.65625 5.234375 -7.46875 C 4.941406 -7.289062 4.726562 -7.082031 4.59375 -6.84375 C 4.457031 -6.613281 4.367188 -6.40625 4.328125 -6.21875 C 4.296875 -6.039062 4.28125 -5.953125 4.28125 -5.953125 Z M 11.71875 -5.015625 C 11.71875 -4.921875 11.710938 -4.820312 11.703125 -4.71875 C 11.703125 -4.613281 11.703125 -4.507812 11.703125 -4.40625 L 4.234375 -4.40625 C 4.234375 -4.039062 4.316406 -3.679688 4.484375 -3.328125 C 4.648438 -2.972656 4.890625 -2.679688 5.203125 -2.453125 C 5.515625 -2.234375 5.882812 -2.125 6.3125 -2.125 C 6.894531 -2.125 7.351562 -2.28125 7.6875 -2.59375 C 8.019531 -2.90625 8.191406 -3.234375 8.203125 -3.578125 L 11.546875 -3.578125 C 11.265625 -2.316406 10.648438 -1.367188 9.703125 -0.734375 C 8.765625 -0.0976562 7.65625 0.21875 6.375 0.21875 C 5.269531 0.21875 4.296875 0.0078125 3.453125 -0.40625 C 2.609375 -0.820312 1.945312 -1.40625 1.46875 -2.15625 C 1 -2.90625 0.765625 -3.785156 0.765625 -4.796875 C 0.765625 -5.804688 1.003906 -6.6875 1.484375 -7.4375 C 1.972656 -8.195312 2.640625 -8.785156 3.484375 -9.203125 C 4.335938 -9.628906 5.300781 -9.84375 6.375 -9.84375 C 7.351562 -9.84375 8.242188 -9.648438 9.046875 -9.265625 C 9.859375 -8.890625 10.503906 -8.34375 10.984375 -7.625 C 11.472656 -6.914062 11.71875 -6.046875 11.71875 -5.015625 Z M 11.71875 -5.015625 "/></g></g></g><g fill="#7dd3fc" fill-opacity="1"><g transform="translate(144.527283, 87.17351)"><g><path d="M 10.984375 -9.625 L 7.3125 0 L 3.453125 0 L -0.21875 -9.625 L 3.078125 -9.625 L 5.375 -2.75 L 7.65625 -9.625 Z M 10.984375 -9.625 "/></g></g></g><g fill="#e0e5ec" fill-opacity="1"><g transform="translate(155.299182, 87.17351)"><g><path d="M 14.453125 0 L 10.453125 0 L 7.296875 -5.15625 L 4.125 0 L 0.125 0 L 5.28125 -7.421875 L 0.125 -14.84375 L 4.125 -14.84375 L 7.296875 -9.6875 L 10.453125 -14.84375 L 14.453125 -14.84375 L 9.296875 -7.421875 Z M 14.453125 0 "/></g></g></g><g fill="#e0e5ec" fill-opacity="1"><g transform="translate(169.883028, 87.17351)"><g><path d="M 4.578125 -4.796875 C 4.578125 -4.378906 4.675781 -3.988281 4.875 -3.625 C 5.082031 -3.257812 5.359375 -2.960938 5.703125 -2.734375 C 6.046875 -2.515625 6.4375 -2.40625 6.875 -2.40625 C 7.3125 -2.40625 7.703125 -2.515625 8.046875 -2.734375 C 8.390625 -2.960938 8.660156 -3.257812 8.859375 -3.625 C 9.066406 -3.988281 9.171875 -4.378906 9.171875 -4.796875 C 9.171875 -5.222656 9.066406 -5.617188 8.859375 -5.984375 C 8.660156 -6.347656 8.390625 -6.640625 8.046875 -6.859375 C 7.703125 -7.085938 7.3125 -7.203125 6.875 -7.203125 C 6.4375 -7.203125 6.046875 -7.085938 5.703125 -6.859375 C 5.359375 -6.640625 5.082031 -6.347656 4.875 -5.984375 C 4.675781 -5.617188 4.578125 -5.222656 4.578125 -4.796875 Z M 4.578125 5.453125 L 1.3125 5.453125 L 1.3125 -9.625 L 4.578125 -9.625 L 4.578125 -8.453125 C 5.003906 -8.972656 5.503906 -9.332031 6.078125 -9.53125 C 6.648438 -9.738281 7.25 -9.84375 7.875 -9.84375 C 8.789062 -9.84375 9.609375 -9.601562 10.328125 -9.125 C 11.054688 -8.65625 11.625 -8.039062 12.03125 -7.28125 C 12.445312 -6.519531 12.65625 -5.691406 12.65625 -4.796875 C 12.65625 -3.910156 12.445312 -3.082031 12.03125 -2.3125 C 11.625 -1.550781 11.054688 -0.9375 10.328125 -0.46875 C 9.609375 -0.0078125 8.789062 0.21875 7.875 0.21875 C 7.25 0.21875 6.628906 0.113281 6.015625 -0.09375 C 5.398438 -0.3125 4.921875 -0.664062 4.578125 -1.15625 Z M 4.578125 5.453125 "/></g></g></g><g fill="#e0e5ec" fill-opacity="1"><g transform="translate(183.309774, 87.17351)"><g><path d="M 4.28125 -5.953125 L 8.578125 -5.953125 C 8.578125 -5.953125 8.554688 -6.039062 8.515625 -6.21875 C 8.484375 -6.40625 8.394531 -6.613281 8.25 -6.84375 C 8.113281 -7.082031 7.898438 -7.289062 7.609375 -7.46875 C 7.328125 -7.65625 6.9375 -7.75 6.4375 -7.75 C 5.925781 -7.75 5.523438 -7.65625 5.234375 -7.46875 C 4.941406 -7.289062 4.726562 -7.082031 4.59375 -6.84375 C 4.457031 -6.613281 4.367188 -6.40625 4.328125 -6.21875 C 4.296875 -6.039062 4.28125 -5.953125 4.28125 -5.953125 Z M 11.71875 -5.015625 C 11.71875 -4.921875 11.710938 -4.820312 11.703125 -4.71875 C 11.703125 -4.613281 11.703125 -4.507812 11.703125 -4.40625 L 4.234375 -4.40625 C 4.234375 -4.039062 4.316406 -3.679688 4.484375 -3.328125 C 4.648438 -2.972656 4.890625 -2.679688 5.203125 -2.453125 C 5.515625 -2.234375 5.882812 -2.125 6.3125 -2.125 C 6.894531 -2.125 7.351562 -2.28125 7.6875 -2.59375 C 8.019531 -2.90625 8.191406 -3.234375 8.203125 -3.578125 L 11.546875 -3.578125 C 11.265625 -2.316406 10.648438 -1.367188 9.703125 -0.734375 C 8.765625 -0.0976562 7.65625 0.21875 6.375 0.21875 C 5.269531 0.21875 4.296875 0.0078125 3.453125 -0.40625 C 2.609375 -0.820312 1.945312 -1.40625 1.46875 -2.15625 C 1 -2.90625 0.765625 -3.785156 0.765625 -4.796875 C 0.765625 -5.804688 1.003906 -6.6875 1.484375 -7.4375 C 1.972656 -8.195312 2.640625 -8.785156 3.484375 -9.203125 C 4.335938 -9.628906 5.300781 -9.84375 6.375 -9.84375 C 7.351562 -9.84375 8.242188 -9.648438 9.046875 -9.265625 C 9.859375 -8.890625 10.503906 -8.34375 10.984375 -7.625 C 11.472656 -6.914062 11.71875 -6.046875 11.71875 -5.015625 Z M 11.71875 -5.015625 "/></g></g></g><g fill="#e0e5ec" fill-opacity="1"><g transform="translate(195.797738, 87.17351)"><g><path d="M 6.75 -7.203125 C 6.34375 -7.203125 5.972656 -7.082031 5.640625 -6.84375 C 5.316406 -6.601562 5.054688 -6.300781 4.859375 -5.9375 C 4.671875 -5.570312 4.578125 -5.191406 4.578125 -4.796875 L 4.578125 0 L 1.3125 0 L 1.3125 -9.625 L 4.578125 -9.625 L 4.578125 -8.453125 C 4.828125 -8.816406 5.160156 -9.140625 5.578125 -9.421875 C 6.003906 -9.703125 6.515625 -9.84375 7.109375 -9.84375 C 7.253906 -9.84375 7.421875 -9.820312 7.609375 -9.78125 C 7.804688 -9.75 7.96875 -9.695312 8.09375 -9.625 L 8.09375 -6.65625 L 8.046875 -6.65625 C 7.890625 -6.863281 7.691406 -7.003906 7.453125 -7.078125 C 7.222656 -7.160156 6.988281 -7.203125 6.75 -7.203125 Z M 6.75 -7.203125 "/></g></g></g><g fill="#e0e5ec" fill-opacity="1"><g transform="translate(204.115773, 87.17351)"><g><path d="M 5.4375 -7.09375 L 5.4375 0 L 2.1875 0 L 2.1875 -7.09375 L 0.4375 -7.09375 L 0.4375 -9.625 L 2.1875 -9.625 L 2.1875 -13.296875 L 5.4375 -13.296875 L 5.4375 -9.625 L 7.1875 -9.625 L 7.1875 -7.09375 Z M 5.4375 -7.09375 "/></g></g></g><g clip-path="url(#688eab40a6)"><g clip-path="url(#49bdc90474)"><g clip-path="url(#115df4db81)"><path fill="#7dd3fc" d="M 208.945312 69.746094 C 208.96875 69.753906 208.984375 69.761719 209.003906 69.773438 C 212.195312 72.007812 214.578125 75.457031 215.542969 79.230469 C 216.503906 83.007812 216.0625 87.171875 214.328125 90.664062 C 214.277344 90.769531 214.148438 90.8125 214.042969 90.757812 C 213.9375 90.707031 213.894531 90.578125 213.949219 90.472656 C 215.636719 87.074219 216.066406 83.015625 215.128906 79.335938 C 214.191406 75.660156 211.871094 72.300781 208.761719 70.125 C 208.664062 70.054688 208.640625 69.921875 208.707031 69.828125 C 208.761719 69.75 208.859375 69.71875 208.945312 69.746094 Z M 208.945312 69.746094 " fill-opacity="1" fill-rule="nonzero"/></g></g></g><g clip-path="url(#f4a326ed79)"><g clip-path="url(#803fb2c7b4)"><g clip-path="url(#e6e798b2c1)"><path fill="#7dd3fc" d="M 203.441406 66.976562 C 204.171875 67.207031 204.921875 67.539062 205.71875 67.976562 C 205.820312 68.03125 205.859375 68.160156 205.804688 68.265625 C 205.746094 68.367188 205.617188 68.40625 205.515625 68.347656 C 202.976562 66.960938 200.941406 66.667969 198.488281 67.335938 C 198.375 67.367188 198.257812 67.300781 198.226562 67.1875 C 198.195312 67.074219 198.261719 66.957031 198.375 66.925781 C 200.171875 66.4375 201.75 66.4375 203.441406 66.976562 Z M 203.441406 66.976562 " fill-opacity="1" fill-rule="nonzero"/></g></g></g><g clip-path="url(#36c11b8f8a)"><g clip-path="url(#1b548ac0e6)"><g clip-path="url(#477d576079)"><path fill="#7dd3fc" d="M 218.003906 83.53125 C 218.054688 83.546875 218.09375 83.597656 218.09375 83.65625 C 218.085938 84.597656 217.941406 85.53125 217.664062 86.425781 C 217.644531 86.492188 217.570312 86.53125 217.503906 86.511719 C 217.4375 86.488281 217.398438 86.417969 217.421875 86.351562 C 217.691406 85.476562 217.832031 84.570312 217.839844 83.652344 C 217.839844 83.582031 217.894531 83.527344 217.964844 83.527344 C 217.980469 83.527344 217.992188 83.527344 218.003906 83.53125 Z M 218.003906 83.53125 " fill-opacity="1" fill-rule="nonzero"/></g></g></g><g clip-path="url(#80a5628fa7)"><g clip-path="url(#5a093d574f)"><g clip-path="url(#44f8bded4b)"><path fill="#7dd3fc" d="M 212.9375 70.496094 C 212.957031 70.5 212.972656 70.511719 212.988281 70.527344 C 215.847656 73.527344 217.632812 77.453125 218.023438 81.582031 C 218.03125 81.652344 217.976562 81.714844 217.90625 81.71875 C 217.835938 81.726562 217.777344 81.675781 217.769531 81.605469 C 217.386719 77.535156 215.621094 73.664062 212.804688 70.703125 C 212.757812 70.652344 212.757812 70.570312 212.808594 70.523438 C 212.84375 70.492188 212.894531 70.480469 212.9375 70.496094 Z M 212.9375 70.496094 " fill-opacity="1" fill-rule="nonzero"/></g></g></g><g fill="#e0e5ec" fill-opacity="1"><g transform="translate(121.519286, 91.995569)"><g><path d="M 1.171875 -0.375 C 1.222656 -0.375 1.28125 -0.382812 1.34375 -0.40625 C 1.414062 -0.425781 1.472656 -0.457031 1.515625 -0.5 C 1.566406 -0.539062 1.59375 -0.597656 1.59375 -0.671875 C 1.59375 -0.734375 1.566406 -0.785156 1.515625 -0.828125 C 1.460938 -0.867188 1.394531 -0.898438 1.3125 -0.921875 C 1.226562 -0.953125 1.132812 -0.976562 1.03125 -1 C 0.9375 -1.019531 0.835938 -1.046875 0.734375 -1.078125 C 0.640625 -1.117188 0.550781 -1.164062 0.46875 -1.21875 C 0.382812 -1.269531 0.316406 -1.335938 0.265625 -1.421875 C 0.210938 -1.503906 0.1875 -1.609375 0.1875 -1.734375 C 0.1875 -1.867188 0.210938 -1.976562 0.265625 -2.0625 C 0.316406 -2.15625 0.382812 -2.234375 0.46875 -2.296875 C 0.5625 -2.359375 0.660156 -2.40625 0.765625 -2.4375 C 0.878906 -2.46875 0.988281 -2.484375 1.09375 -2.484375 C 1.257812 -2.484375 1.414062 -2.457031 1.5625 -2.40625 C 1.71875 -2.351562 1.835938 -2.269531 1.921875 -2.15625 C 2.015625 -2.039062 2.066406 -1.890625 2.078125 -1.703125 L 1.546875 -1.703125 C 1.535156 -1.828125 1.492188 -1.910156 1.421875 -1.953125 C 1.347656 -2.003906 1.242188 -2.03125 1.109375 -2.03125 C 1.054688 -2.03125 1 -2.019531 0.9375 -2 C 0.882812 -1.988281 0.835938 -1.960938 0.796875 -1.921875 C 0.765625 -1.890625 0.75 -1.84375 0.75 -1.78125 C 0.75 -1.71875 0.769531 -1.664062 0.8125 -1.625 C 0.863281 -1.59375 0.929688 -1.566406 1.015625 -1.546875 C 1.109375 -1.523438 1.203125 -1.5 1.296875 -1.46875 C 1.398438 -1.445312 1.5 -1.421875 1.59375 -1.390625 C 1.695312 -1.359375 1.789062 -1.316406 1.875 -1.265625 C 1.957031 -1.210938 2.023438 -1.144531 2.078125 -1.0625 C 2.128906 -0.976562 2.15625 -0.867188 2.15625 -0.734375 C 2.15625 -0.585938 2.125 -0.460938 2.0625 -0.359375 C 2.007812 -0.265625 1.929688 -0.1875 1.828125 -0.125 C 1.734375 -0.0625 1.625 -0.015625 1.5 0.015625 C 1.382812 0.046875 1.265625 0.0625 1.140625 0.0625 C 0.960938 0.0625 0.796875 0.03125 0.640625 -0.03125 C 0.484375 -0.09375 0.351562 -0.1875 0.25 -0.3125 C 0.15625 -0.4375 0.109375 -0.601562 0.109375 -0.8125 L 0.65625 -0.8125 C 0.664062 -0.65625 0.71875 -0.539062 0.8125 -0.46875 C 0.914062 -0.40625 1.035156 -0.375 1.171875 -0.375 Z M 1.171875 -0.375 "/></g></g></g><g fill="#e0e5ec" fill-opacity="1"><g transform="translate(124.105629, 91.995569)"><g><path d="M 2.109375 -1.21875 C 2.109375 -1.351562 2.070312 -1.472656 2 -1.578125 C 1.9375 -1.691406 1.847656 -1.78125 1.734375 -1.84375 C 1.628906 -1.90625 1.515625 -1.9375 1.390625 -1.9375 C 1.265625 -1.9375 1.144531 -1.90625 1.03125 -1.84375 C 0.914062 -1.78125 0.828125 -1.691406 0.765625 -1.578125 C 0.703125 -1.472656 0.671875 -1.351562 0.671875 -1.21875 C 0.671875 -1.09375 0.703125 -0.972656 0.765625 -0.859375 C 0.828125 -0.753906 0.914062 -0.664062 1.03125 -0.59375 C 1.144531 -0.53125 1.265625 -0.5 1.390625 -0.5 C 1.515625 -0.5 1.628906 -0.53125 1.734375 -0.59375 C 1.847656 -0.664062 1.9375 -0.753906 2 -0.859375 C 2.070312 -0.972656 2.109375 -1.09375 2.109375 -1.21875 Z M 2.640625 -1.21875 C 2.640625 -1.050781 2.601562 -0.890625 2.53125 -0.734375 C 2.46875 -0.585938 2.378906 -0.457031 2.265625 -0.34375 C 2.148438 -0.226562 2.015625 -0.132812 1.859375 -0.0625 C 1.710938 0 1.554688 0.03125 1.390625 0.03125 C 1.210938 0.03125 1.046875 0 0.890625 -0.0625 C 0.742188 -0.132812 0.613281 -0.226562 0.5 -0.34375 C 0.382812 -0.457031 0.289062 -0.585938 0.21875 -0.734375 C 0.15625 -0.890625 0.125 -1.050781 0.125 -1.21875 C 0.125 -1.394531 0.15625 -1.554688 0.21875 -1.703125 C 0.289062 -1.859375 0.382812 -1.992188 0.5 -2.109375 C 0.613281 -2.222656 0.742188 -2.3125 0.890625 -2.375 C 1.046875 -2.445312 1.210938 -2.484375 1.390625 -2.484375 C 1.554688 -2.484375 1.710938 -2.445312 1.859375 -2.375 C 2.015625 -2.3125 2.148438 -2.222656 2.265625 -2.109375 C 2.378906 -1.992188 2.46875 -1.859375 2.53125 -1.703125 C 2.601562 -1.554688 2.640625 -1.394531 2.640625 -1.21875 Z M 2.640625 -1.21875 "/></g></g></g><g fill="#e0e5ec" fill-opacity="1"><g transform="translate(127.195569, 91.995569)"><g><path d="M 0.21875 0 L 0.21875 -2.4375 L 0.75 -2.4375 L 0.75 -0.484375 L 1.625 -0.484375 L 1.625 0 Z M 0.21875 0 "/></g></g></g><g fill="#e0e5ec" fill-opacity="1"><g transform="translate(129.274713, 91.995569)"><g><path d="M 1.640625 -2.4375 L 2.1875 -2.4375 L 2.1875 -0.953125 C 2.1875 -0.628906 2.097656 -0.382812 1.921875 -0.21875 C 1.742188 -0.0507812 1.492188 0.03125 1.171875 0.03125 C 0.847656 0.03125 0.597656 -0.0507812 0.421875 -0.21875 C 0.242188 -0.382812 0.15625 -0.628906 0.15625 -0.953125 L 0.15625 -2.4375 L 0.703125 -2.4375 L 0.703125 -1.03125 C 0.703125 -0.863281 0.734375 -0.734375 0.796875 -0.640625 C 0.859375 -0.546875 0.984375 -0.5 1.171875 -0.5 C 1.359375 -0.5 1.484375 -0.546875 1.546875 -0.640625 C 1.609375 -0.734375 1.640625 -0.863281 1.640625 -1.03125 Z M 1.640625 -2.4375 "/></g></g></g><g fill="#e0e5ec" fill-opacity="1"><g transform="translate(131.94019, 91.995569)"><g><path d="M 1.984375 -0.828125 L 2.578125 -0.828125 C 2.523438 -0.671875 2.441406 -0.523438 2.328125 -0.390625 C 2.222656 -0.265625 2.09375 -0.164062 1.9375 -0.09375 C 1.789062 -0.0195312 1.628906 0.0195312 1.453125 0.03125 L 1.34375 0.265625 C 1.394531 0.242188 1.441406 0.238281 1.484375 0.25 C 1.535156 0.257812 1.578125 0.285156 1.609375 0.328125 C 1.640625 0.378906 1.65625 0.4375 1.65625 0.5 C 1.664062 0.5625 1.660156 0.617188 1.640625 0.671875 C 1.597656 0.765625 1.535156 0.828125 1.453125 0.859375 C 1.367188 0.890625 1.273438 0.898438 1.171875 0.890625 C 1.078125 0.890625 0.988281 0.867188 0.90625 0.828125 L 0.875 0.828125 L 0.984375 0.625 L 1 0.625 C 1.050781 0.644531 1.101562 0.660156 1.15625 0.671875 C 1.21875 0.679688 1.269531 0.675781 1.3125 0.65625 C 1.363281 0.632812 1.394531 0.609375 1.40625 0.578125 C 1.414062 0.546875 1.414062 0.515625 1.40625 0.484375 C 1.394531 0.460938 1.367188 0.445312 1.328125 0.4375 C 1.285156 0.4375 1.242188 0.4375 1.203125 0.4375 C 1.160156 0.445312 1.117188 0.453125 1.078125 0.453125 L 1.03125 0.46875 L 1.234375 0.03125 C 1.078125 0.0078125 0.929688 -0.0351562 0.796875 -0.109375 C 0.660156 -0.179688 0.539062 -0.269531 0.4375 -0.375 C 0.34375 -0.488281 0.265625 -0.617188 0.203125 -0.765625 C 0.148438 -0.910156 0.125 -1.0625 0.125 -1.21875 C 0.125 -1.394531 0.15625 -1.554688 0.21875 -1.703125 C 0.28125 -1.859375 0.367188 -1.992188 0.484375 -2.109375 C 0.609375 -2.222656 0.742188 -2.3125 0.890625 -2.375 C 1.046875 -2.445312 1.210938 -2.484375 1.390625 -2.484375 C 1.566406 -2.484375 1.734375 -2.441406 1.890625 -2.359375 C 2.054688 -2.285156 2.195312 -2.1875 2.3125 -2.0625 C 2.4375 -1.9375 2.523438 -1.789062 2.578125 -1.625 L 1.96875 -1.625 C 1.925781 -1.726562 1.847656 -1.8125 1.734375 -1.875 C 1.628906 -1.9375 1.515625 -1.96875 1.390625 -1.96875 C 1.253906 -1.96875 1.128906 -1.929688 1.015625 -1.859375 C 0.910156 -1.796875 0.828125 -1.707031 0.765625 -1.59375 C 0.703125 -1.488281 0.671875 -1.363281 0.671875 -1.21875 C 0.671875 -1.082031 0.703125 -0.957031 0.765625 -0.84375 C 0.828125 -0.726562 0.910156 -0.632812 1.015625 -0.5625 C 1.128906 -0.5 1.253906 -0.46875 1.390625 -0.46875 C 1.515625 -0.46875 1.628906 -0.5 1.734375 -0.5625 C 1.847656 -0.632812 1.929688 -0.722656 1.984375 -0.828125 Z M 1.984375 -0.828125 "/></g></g></g><g fill="#e0e5ec" fill-opacity="1"><g transform="translate(134.933008, 91.995569)"><g><path d="M 1.75 -3.109375 L 2.0625 -3.109375 C 2.0625 -2.953125 2.023438 -2.828125 1.953125 -2.734375 C 1.878906 -2.640625 1.773438 -2.59375 1.640625 -2.59375 C 1.578125 -2.59375 1.523438 -2.601562 1.484375 -2.625 C 1.441406 -2.644531 1.398438 -2.664062 1.359375 -2.6875 C 1.328125 -2.71875 1.289062 -2.738281 1.25 -2.75 C 1.21875 -2.769531 1.175781 -2.78125 1.125 -2.78125 C 1.070312 -2.78125 1.035156 -2.757812 1.015625 -2.71875 C 0.992188 -2.675781 0.984375 -2.640625 0.984375 -2.609375 L 0.671875 -2.609375 C 0.671875 -2.691406 0.6875 -2.769531 0.71875 -2.84375 C 0.75 -2.925781 0.796875 -2.992188 0.859375 -3.046875 C 0.929688 -3.109375 1.015625 -3.140625 1.109375 -3.140625 C 1.191406 -3.140625 1.257812 -3.125 1.3125 -3.09375 C 1.375 -3.0625 1.425781 -3.03125 1.46875 -3 C 1.507812 -2.96875 1.550781 -2.953125 1.59375 -2.953125 C 1.625 -2.953125 1.65625 -2.957031 1.6875 -2.96875 C 1.726562 -2.988281 1.75 -3.035156 1.75 -3.109375 Z M 2.109375 -1.21875 C 2.109375 -1.351562 2.070312 -1.472656 2 -1.578125 C 1.9375 -1.691406 1.847656 -1.78125 1.734375 -1.84375 C 1.628906 -1.90625 1.515625 -1.9375 1.390625 -1.9375 C 1.265625 -1.9375 1.144531 -1.90625 1.03125 -1.84375 C 0.914062 -1.78125 0.828125 -1.691406 0.765625 -1.578125 C 0.703125 -1.472656 0.671875 -1.351562 0.671875 -1.21875 C 0.671875 -1.09375 0.703125 -0.972656 0.765625 -0.859375 C 0.828125 -0.753906 0.914062 -0.664062 1.03125 -0.59375 C 1.144531 -0.53125 1.265625 -0.5 1.390625 -0.5 C 1.515625 -0.5 1.628906 -0.53125 1.734375 -0.59375 C 1.847656 -0.664062 1.9375 -0.753906 2 -0.859375 C 2.070312 -0.972656 2.109375 -1.09375 2.109375 -1.21875 Z M 2.640625 -1.21875 C 2.640625 -1.050781 2.601562 -0.890625 2.53125 -0.734375 C 2.46875 -0.585938 2.378906 -0.457031 2.265625 -0.34375 C 2.148438 -0.226562 2.015625 -0.132812 1.859375 -0.0625 C 1.710938 0 1.554688 0.03125 1.390625 0.03125 C 1.210938 0.03125 1.046875 0 0.890625 -0.0625 C 0.742188 -0.132812 0.613281 -0.226562 0.5 -0.34375 C 0.382812 -0.457031 0.289062 -0.585938 0.21875 -0.734375 C 0.15625 -0.890625 0.125 -1.050781 0.125 -1.21875 C 0.125 -1.394531 0.15625 -1.554688 0.21875 -1.703125 C 0.289062 -1.859375 0.382812 -1.992188 0.5 -2.109375 C 0.613281 -2.222656 0.742188 -2.3125 0.890625 -2.375 C 1.046875 -2.445312 1.210938 -2.484375 1.390625 -2.484375 C 1.554688 -2.484375 1.710938 -2.445312 1.859375 -2.375 C 2.015625 -2.3125 2.148438 -2.222656 2.265625 -2.109375 C 2.378906 -1.992188 2.46875 -1.859375 2.53125 -1.703125 C 2.601562 -1.554688 2.640625 -1.394531 2.640625 -1.21875 Z M 2.640625 -1.21875 "/></g></g></g><g fill="#e0e5ec" fill-opacity="1"><g transform="translate(138.022949, 91.995569)"><g><path d="M 1.625 -0.484375 L 1.625 0 L 0.21875 0 L 0.21875 -2.4375 L 1.625 -2.4375 L 1.625 -1.953125 L 0.75 -1.953125 L 0.75 -1.46875 L 1.59375 -1.46875 L 1.59375 -0.984375 L 0.75 -0.984375 L 0.75 -0.484375 Z M 1.625 -0.484375 "/></g></g></g><g fill="#e0e5ec" fill-opacity="1"><g transform="translate(140.192022, 91.995569)"><g><path d="M 1.171875 -0.375 C 1.222656 -0.375 1.28125 -0.382812 1.34375 -0.40625 C 1.414062 -0.425781 1.472656 -0.457031 1.515625 -0.5 C 1.566406 -0.539062 1.59375 -0.597656 1.59375 -0.671875 C 1.59375 -0.734375 1.566406 -0.785156 1.515625 -0.828125 C 1.460938 -0.867188 1.394531 -0.898438 1.3125 -0.921875 C 1.226562 -0.953125 1.132812 -0.976562 1.03125 -1 C 0.9375 -1.019531 0.835938 -1.046875 0.734375 -1.078125 C 0.640625 -1.117188 0.550781 -1.164062 0.46875 -1.21875 C 0.382812 -1.269531 0.316406 -1.335938 0.265625 -1.421875 C 0.210938 -1.503906 0.1875 -1.609375 0.1875 -1.734375 C 0.1875 -1.867188 0.210938 -1.976562 0.265625 -2.0625 C 0.316406 -2.15625 0.382812 -2.234375 0.46875 -2.296875 C 0.5625 -2.359375 0.660156 -2.40625 0.765625 -2.4375 C 0.878906 -2.46875 0.988281 -2.484375 1.09375 -2.484375 C 1.257812 -2.484375 1.414062 -2.457031 1.5625 -2.40625 C 1.71875 -2.351562 1.835938 -2.269531 1.921875 -2.15625 C 2.015625 -2.039062 2.066406 -1.890625 2.078125 -1.703125 L 1.546875 -1.703125 C 1.535156 -1.828125 1.492188 -1.910156 1.421875 -1.953125 C 1.347656 -2.003906 1.242188 -2.03125 1.109375 -2.03125 C 1.054688 -2.03125 1 -2.019531 0.9375 -2 C 0.882812 -1.988281 0.835938 -1.960938 0.796875 -1.921875 C 0.765625 -1.890625 0.75 -1.84375 0.75 -1.78125 C 0.75 -1.71875 0.769531 -1.664062 0.8125 -1.625 C 0.863281 -1.59375 0.929688 -1.566406 1.015625 -1.546875 C 1.109375 -1.523438 1.203125 -1.5 1.296875 -1.46875 C 1.398438 -1.445312 1.5 -1.421875 1.59375 -1.390625 C 1.695312 -1.359375 1.789062 -1.316406 1.875 -1.265625 C 1.957031 -1.210938 2.023438 -1.144531 2.078125 -1.0625 C 2.128906 -0.976562 2.15625 -0.867188 2.15625 -0.734375 C 2.15625 -0.585938 2.125 -0.460938 2.0625 -0.359375 C 2.007812 -0.265625 1.929688 -0.1875 1.828125 -0.125 C 1.734375 -0.0625 1.625 -0.015625 1.5 0.015625 C 1.382812 0.046875 1.265625 0.0625 1.140625 0.0625 C 0.960938 0.0625 0.796875 0.03125 0.640625 -0.03125 C 0.484375 -0.09375 0.351562 -0.1875 0.25 -0.3125 C 0.15625 -0.4375 0.109375 -0.601562 0.109375 -0.8125 L 0.65625 -0.8125 C 0.664062 -0.65625 0.71875 -0.539062 0.8125 -0.46875 C 0.914062 -0.40625 1.035156 -0.375 1.171875 -0.375 Z M 1.171875 -0.375 "/></g></g></g><g fill="#e0e5ec" fill-opacity="1"><g transform="translate(142.778364, 91.995569)"><g/></g></g><g fill="#e0e5ec" fill-opacity="1"><g transform="translate(143.99779, 91.995569)"><g><path d="M 0.75 -0.5 L 0.90625 -0.5 C 1.050781 -0.5 1.175781 -0.53125 1.28125 -0.59375 C 1.382812 -0.65625 1.460938 -0.738281 1.515625 -0.84375 C 1.578125 -0.957031 1.609375 -1.082031 1.609375 -1.21875 C 1.609375 -1.351562 1.578125 -1.472656 1.515625 -1.578125 C 1.460938 -1.691406 1.382812 -1.78125 1.28125 -1.84375 C 1.175781 -1.90625 1.050781 -1.9375 0.90625 -1.9375 L 0.75 -1.9375 Z M 0.21875 -2.4375 L 0.9375 -2.4375 C 1.113281 -2.4375 1.273438 -2.40625 1.421875 -2.34375 C 1.566406 -2.28125 1.691406 -2.191406 1.796875 -2.078125 C 1.910156 -1.972656 2 -1.847656 2.0625 -1.703125 C 2.125 -1.554688 2.15625 -1.394531 2.15625 -1.21875 C 2.15625 -1.050781 2.125 -0.890625 2.0625 -0.734375 C 2 -0.585938 1.910156 -0.457031 1.796875 -0.34375 C 1.691406 -0.238281 1.566406 -0.15625 1.421875 -0.09375 C 1.273438 -0.03125 1.113281 0 0.9375 0 L 0.21875 0 Z M 0.21875 -2.4375 "/></g></g></g><g fill="#e0e5ec" fill-opacity="1"><g transform="translate(146.602118, 91.995569)"><g><path d="M 0.75 0 L 0.21875 0 L 0.21875 -2.4375 L 0.75 -2.4375 Z M 0.75 0 "/></g></g></g><g fill="#e0e5ec" fill-opacity="1"><g transform="translate(147.893488, 91.995569)"><g><path d="M 1.4375 -1.96875 C 1.3125 -1.96875 1.191406 -1.929688 1.078125 -1.859375 C 0.972656 -1.796875 0.882812 -1.707031 0.8125 -1.59375 C 0.75 -1.476562 0.71875 -1.351562 0.71875 -1.21875 C 0.71875 -1.082031 0.75 -0.953125 0.8125 -0.828125 C 0.882812 -0.710938 0.972656 -0.617188 1.078125 -0.546875 C 1.191406 -0.484375 1.3125 -0.453125 1.4375 -0.453125 C 1.519531 -0.453125 1.601562 -0.460938 1.6875 -0.484375 C 1.769531 -0.503906 1.847656 -0.546875 1.921875 -0.609375 C 2.003906 -0.679688 2.066406 -0.773438 2.109375 -0.890625 L 1.484375 -0.890625 L 1.484375 -1.296875 L 2.6875 -1.296875 L 2.6875 -1.21875 C 2.6875 -1.050781 2.65625 -0.890625 2.59375 -0.734375 C 2.53125 -0.578125 2.441406 -0.441406 2.328125 -0.328125 C 2.210938 -0.210938 2.078125 -0.125 1.921875 -0.0625 C 1.773438 0 1.613281 0.03125 1.4375 0.03125 C 1.257812 0.03125 1.09375 0 0.9375 -0.0625 C 0.789062 -0.125 0.660156 -0.210938 0.546875 -0.328125 C 0.429688 -0.441406 0.335938 -0.578125 0.265625 -0.734375 C 0.203125 -0.890625 0.171875 -1.050781 0.171875 -1.21875 C 0.171875 -1.394531 0.203125 -1.554688 0.265625 -1.703125 C 0.335938 -1.859375 0.429688 -1.992188 0.546875 -2.109375 C 0.660156 -2.222656 0.789062 -2.3125 0.9375 -2.375 C 1.09375 -2.445312 1.257812 -2.484375 1.4375 -2.484375 C 1.613281 -2.484375 1.78125 -2.445312 1.9375 -2.375 C 2.101562 -2.300781 2.242188 -2.195312 2.359375 -2.0625 C 2.484375 -1.9375 2.570312 -1.789062 2.625 -1.625 L 2.03125 -1.625 C 1.976562 -1.75 1.894531 -1.835938 1.78125 -1.890625 C 1.664062 -1.941406 1.550781 -1.96875 1.4375 -1.96875 Z M 1.4375 -1.96875 "/></g></g></g><g fill="#e0e5ec" fill-opacity="1"><g transform="translate(151.033788, 91.995569)"><g><path d="M 0.75 0 L 0.21875 0 L 0.21875 -2.4375 L 0.75 -2.4375 Z M 0.75 0 "/></g></g></g><g fill="#e0e5ec" fill-opacity="1"><g transform="translate(152.325159, 91.995569)"><g><path d="M 1.25 -1.953125 L 1.25 0 L 0.71875 0 L 0.71875 -1.953125 L 0.015625 -1.953125 L 0.015625 -2.4375 L 1.953125 -2.4375 L 1.953125 -1.953125 Z M 1.25 -1.953125 "/></g></g></g><g fill="#e0e5ec" fill-opacity="1"><g transform="translate(154.616535, 91.995569)"><g><path d="M 1.546875 -0.9375 L 1.234375 -1.796875 L 0.921875 -0.9375 Z M 2.453125 0 L 1.875 0 L 1.703125 -0.5 L 0.765625 -0.5 L 0.59375 0 L 0.015625 0 L 1.015625 -2.4375 L 1.46875 -2.4375 Z M 2.453125 0 "/></g></g></g><g fill="#e0e5ec" fill-opacity="1"><g transform="translate(157.415105, 91.995569)"><g><path d="M 0.75 0 L 0.21875 0 L 0.21875 -2.4375 L 0.75 -2.4375 Z M 0.75 0 "/></g></g></g><g fill="#e0e5ec" fill-opacity="1"><g transform="translate(158.706476, 91.995569)"><g><path d="M 1.171875 -0.375 C 1.222656 -0.375 1.28125 -0.382812 1.34375 -0.40625 C 1.414062 -0.425781 1.472656 -0.457031 1.515625 -0.5 C 1.566406 -0.539062 1.59375 -0.597656 1.59375 -0.671875 C 1.59375 -0.734375 1.566406 -0.785156 1.515625 -0.828125 C 1.460938 -0.867188 1.394531 -0.898438 1.3125 -0.921875 C 1.226562 -0.953125 1.132812 -0.976562 1.03125 -1 C 0.9375 -1.019531 0.835938 -1.046875 0.734375 -1.078125 C 0.640625 -1.117188 0.550781 -1.164062 0.46875 -1.21875 C 0.382812 -1.269531 0.316406 -1.335938 0.265625 -1.421875 C 0.210938 -1.503906 0.1875 -1.609375 0.1875 -1.734375 C 0.1875 -1.867188 0.210938 -1.976562 0.265625 -2.0625 C 0.316406 -2.15625 0.382812 -2.234375 0.46875 -2.296875 C 0.5625 -2.359375 0.660156 -2.40625 0.765625 -2.4375 C 0.878906 -2.46875 0.988281 -2.484375 1.09375 -2.484375 C 1.257812 -2.484375 1.414062 -2.457031 1.5625 -2.40625 C 1.71875 -2.351562 1.835938 -2.269531 1.921875 -2.15625 C 2.015625 -2.039062 2.066406 -1.890625 2.078125 -1.703125 L 1.546875 -1.703125 C 1.535156 -1.828125 1.492188 -1.910156 1.421875 -1.953125 C 1.347656 -2.003906 1.242188 -2.03125 1.109375 -2.03125 C 1.054688 -2.03125 1 -2.019531 0.9375 -2 C 0.882812 -1.988281 0.835938 -1.960938 0.796875 -1.921875 C 0.765625 -1.890625 0.75 -1.84375 0.75 -1.78125 C 0.75 -1.71875 0.769531 -1.664062 0.8125 -1.625 C 0.863281 -1.59375 0.929688 -1.566406 1.015625 -1.546875 C 1.109375 -1.523438 1.203125 -1.5 1.296875 -1.46875 C 1.398438 -1.445312 1.5 -1.421875 1.59375 -1.390625 C 1.695312 -1.359375 1.789062 -1.316406 1.875 -1.265625 C 1.957031 -1.210938 2.023438 -1.144531 2.078125 -1.0625 C 2.128906 -0.976562 2.15625 -0.867188 2.15625 -0.734375 C 2.15625 -0.585938 2.125 -0.460938 2.0625 -0.359375 C 2.007812 -0.265625 1.929688 -0.1875 1.828125 -0.125 C 1.734375 -0.0625 1.625 -0.015625 1.5 0.015625 C 1.382812 0.046875 1.265625 0.0625 1.140625 0.0625 C 0.960938 0.0625 0.796875 0.03125 0.640625 -0.03125 C 0.484375 -0.09375 0.351562 -0.1875 0.25 -0.3125 C 0.15625 -0.4375 0.109375 -0.601562 0.109375 -0.8125 L 0.65625 -0.8125 C 0.664062 -0.65625 0.71875 -0.539062 0.8125 -0.46875 C 0.914062 -0.40625 1.035156 -0.375 1.171875 -0.375 Z M 1.171875 -0.375 "/></g></g></g><g fill="#e0e5ec" fill-opacity="1"><g transform="translate(161.292818, 91.995569)"><g/></g></g><g fill="#e0e5ec" fill-opacity="1"><g transform="translate(162.512243, 91.995569)"><g><path d="M 2.109375 -1.21875 C 2.109375 -1.351562 2.070312 -1.472656 2 -1.578125 C 1.9375 -1.691406 1.847656 -1.78125 1.734375 -1.84375 C 1.628906 -1.90625 1.515625 -1.9375 1.390625 -1.9375 C 1.265625 -1.9375 1.144531 -1.90625 1.03125 -1.84375 C 0.914062 -1.78125 0.828125 -1.691406 0.765625 -1.578125 C 0.703125 -1.472656 0.671875 -1.351562 0.671875 -1.21875 C 0.671875 -1.09375 0.703125 -0.972656 0.765625 -0.859375 C 0.828125 -0.753906 0.914062 -0.664062 1.03125 -0.59375 C 1.144531 -0.53125 1.265625 -0.5 1.390625 -0.5 C 1.515625 -0.5 1.628906 -0.53125 1.734375 -0.59375 C 1.847656 -0.664062 1.9375 -0.753906 2 -0.859375 C 2.070312 -0.972656 2.109375 -1.09375 2.109375 -1.21875 Z M 2.234375 -0.3125 L 2.5 -0.421875 L 2.78125 -0.421875 L 2.78125 0 L 1.671875 0 C 1.578125 0.0195312 1.484375 0.03125 1.390625 0.03125 C 1.210938 0.03125 1.046875 0 0.890625 -0.0625 C 0.742188 -0.132812 0.613281 -0.226562 0.5 -0.34375 C 0.382812 -0.457031 0.289062 -0.585938 0.21875 -0.734375 C 0.15625 -0.890625 0.125 -1.050781 0.125 -1.21875 C 0.125 -1.394531 0.15625 -1.554688 0.21875 -1.703125 C 0.289062 -1.859375 0.382812 -1.992188 0.5 -2.109375 C 0.613281 -2.222656 0.742188 -2.3125 0.890625 -2.375 C 1.046875 -2.445312 1.210938 -2.484375 1.390625 -2.484375 C 1.554688 -2.484375 1.710938 -2.445312 1.859375 -2.375 C 2.015625 -2.3125 2.148438 -2.222656 2.265625 -2.109375 C 2.378906 -1.992188 2.46875 -1.859375 2.53125 -1.703125 C 2.601562 -1.554688 2.640625 -1.394531 2.640625 -1.21875 C 2.640625 -1.039062 2.601562 -0.875 2.53125 -0.71875 C 2.457031 -0.5625 2.359375 -0.425781 2.234375 -0.3125 Z M 2.234375 -0.3125 "/></g></g></g><g fill="#e0e5ec" fill-opacity="1"><g transform="translate(165.623766, 91.995569)"><g><path d="M 1.640625 -2.4375 L 2.1875 -2.4375 L 2.1875 -0.953125 C 2.1875 -0.628906 2.097656 -0.382812 1.921875 -0.21875 C 1.742188 -0.0507812 1.492188 0.03125 1.171875 0.03125 C 0.847656 0.03125 0.597656 -0.0507812 0.421875 -0.21875 C 0.242188 -0.382812 0.15625 -0.628906 0.15625 -0.953125 L 0.15625 -2.4375 L 0.703125 -2.4375 L 0.703125 -1.03125 C 0.703125 -0.863281 0.734375 -0.734375 0.796875 -0.640625 C 0.859375 -0.546875 0.984375 -0.5 1.171875 -0.5 C 1.359375 -0.5 1.484375 -0.546875 1.546875 -0.640625 C 1.609375 -0.734375 1.640625 -0.863281 1.640625 -1.03125 Z M 1.640625 -2.4375 "/></g></g></g><g fill="#e0e5ec" fill-opacity="1"><g transform="translate(168.289241, 91.995569)"><g><path d="M 1.625 -0.484375 L 1.625 0 L 0.21875 0 L 0.21875 -2.4375 L 1.625 -2.4375 L 1.625 -1.953125 L 0.75 -1.953125 L 0.75 -1.46875 L 1.59375 -1.46875 L 1.59375 -0.984375 L 0.75 -0.984375 L 0.75 -0.484375 Z M 1.625 -0.484375 "/></g></g></g><g fill="#e0e5ec" fill-opacity="1"><g transform="translate(170.459707, 91.995569)"><g/></g></g><g fill="#e0e5ec" fill-opacity="1"><g transform="translate(171.679133, 91.995569)"><g/></g></g><g fill="#e0e5ec" fill-opacity="1"><g transform="translate(172.898559, 91.995569)"><g/></g></g><g fill="#e0e5ec" fill-opacity="1"><g transform="translate(174.117985, 91.995569)"><g/></g></g><g fill="#7dd3fc" fill-opacity="1"><g transform="translate(175.340167, 91.995569)"><g><path d="M 1.59375 -0.984375 L 0.75 -0.984375 L 0.75 0 L 0.21875 0 L 0.21875 -2.4375 L 1.625 -2.4375 L 1.625 -1.953125 L 0.75 -1.953125 L 0.75 -1.46875 L 1.59375 -1.46875 Z M 1.59375 -0.984375 "/></g></g></g><g fill="#7dd3fc" fill-opacity="1"><g transform="translate(177.473271, 91.995569)"><g><path d="M 1.546875 -0.9375 L 1.234375 -1.796875 L 0.921875 -0.9375 Z M 2.453125 0 L 1.875 0 L 1.703125 -0.5 L 0.765625 -0.5 L 0.59375 0 L 0.015625 0 L 1.015625 -2.4375 L 1.46875 -2.4375 Z M 2.453125 0 "/></g></g></g><g fill="#7dd3fc" fill-opacity="1"><g transform="translate(180.271841, 91.995569)"><g><path d="M 1.90625 -0.484375 L 1.90625 0 L 0.078125 0 L 1.09375 -1.953125 L 0.140625 -1.953125 L 0.140625 -2.4375 L 1.96875 -2.4375 L 0.953125 -0.484375 Z M 1.90625 -0.484375 "/></g></g></g><g fill="#7dd3fc" fill-opacity="1"><g transform="translate(182.635161, 91.995569)"><g><path d="M 1.625 -0.484375 L 1.625 0 L 0.21875 0 L 0.21875 -2.4375 L 1.625 -2.4375 L 1.625 -1.953125 L 0.75 -1.953125 L 0.75 -1.46875 L 1.59375 -1.46875 L 1.59375 -0.984375 L 0.75 -0.984375 L 0.75 -0.484375 Z M 1.625 -0.484375 "/></g></g></g><g fill="#7dd3fc" fill-opacity="1"><g transform="translate(184.804234, 91.995569)"><g><path d="M 3.265625 0 L 2.671875 0 L 2.375 -1.6875 L 1.90625 0 L 1.375 0 L 0.890625 -1.6875 L 0.609375 0 L 0.015625 0 L 0.5 -2.4375 L 1.125 -2.4375 L 1.640625 -0.734375 L 2.15625 -2.4375 L 2.78125 -2.4375 Z M 3.265625 0 "/></g></g></g><g fill="#7dd3fc" fill-opacity="1"><g transform="translate(188.408564, 91.995569)"><g/></g></g><g fill="#7dd3fc" fill-opacity="1"><g transform="translate(189.62799, 91.995569)"><g><path d="M 1.546875 -0.9375 L 1.234375 -1.796875 L 0.921875 -0.9375 Z M 2.453125 0 L 1.875 0 L 1.703125 -0.5 L 0.765625 -0.5 L 0.59375 0 L 0.015625 0 L 1.015625 -2.4375 L 1.46875 -2.4375 Z M 2.453125 0 "/></g></g></g><g fill="#7dd3fc" fill-opacity="1"><g transform="translate(192.42656, 91.995569)"><g/></g></g><g fill="#7dd3fc" fill-opacity="1"><g transform="translate(193.645987, 91.995569)"><g><path d="M 0.75 -0.5 L 0.90625 -0.5 C 1.050781 -0.5 1.175781 -0.53125 1.28125 -0.59375 C 1.382812 -0.65625 1.460938 -0.738281 1.515625 -0.84375 C 1.578125 -0.957031 1.609375 -1.082031 1.609375 -1.21875 C 1.609375 -1.351562 1.578125 -1.472656 1.515625 -1.578125 C 1.460938 -1.691406 1.382812 -1.78125 1.28125 -1.84375 C 1.175781 -1.90625 1.050781 -1.9375 0.90625 -1.9375 L 0.75 -1.9375 Z M 0.21875 -2.4375 L 0.9375 -2.4375 C 1.113281 -2.4375 1.273438 -2.40625 1.421875 -2.34375 C 1.566406 -2.28125 1.691406 -2.191406 1.796875 -2.078125 C 1.910156 -1.972656 2 -1.847656 2.0625 -1.703125 C 2.125 -1.554688 2.15625 -1.394531 2.15625 -1.21875 C 2.15625 -1.050781 2.125 -0.890625 2.0625 -0.734375 C 2 -0.585938 1.910156 -0.457031 1.796875 -0.34375 C 1.691406 -0.238281 1.566406 -0.15625 1.421875 -0.09375 C 1.273438 -0.03125 1.113281 0 0.9375 0 L 0.21875 0 Z M 0.21875 -2.4375 "/></g></g></g><g fill="#7dd3fc" fill-opacity="1"><g transform="translate(196.250313, 91.995569)"><g><path d="M 0.75 0 L 0.21875 0 L 0.21875 -2.4375 L 0.75 -2.4375 Z M 0.75 0 "/></g></g></g><g fill="#7dd3fc" fill-opacity="1"><g transform="translate(197.541683, 91.995569)"><g><path d="M 1.59375 -0.984375 L 0.75 -0.984375 L 0.75 0 L 0.21875 0 L 0.21875 -2.4375 L 1.625 -2.4375 L 1.625 -1.953125 L 0.75 -1.953125 L 0.75 -1.46875 L 1.59375 -1.46875 Z M 1.59375 -0.984375 "/></g></g></g><g fill="#7dd3fc" fill-opacity="1"><g transform="translate(199.674787, 91.995569)"><g><path d="M 1.625 -0.484375 L 1.625 0 L 0.21875 0 L 0.21875 -2.4375 L 1.625 -2.4375 L 1.625 -1.953125 L 0.75 -1.953125 L 0.75 -1.46875 L 1.59375 -1.46875 L 1.59375 -0.984375 L 0.75 -0.984375 L 0.75 -0.484375 Z M 1.625 -0.484375 "/></g></g></g><g fill="#7dd3fc" fill-opacity="1"><g transform="translate(201.84386, 91.995569)"><g><path d="M 0.75 -0.875 L 0.75 0 L 0.21875 0 L 0.21875 -2.4375 L 1.125 -2.4375 C 1.257812 -2.4375 1.382812 -2.40625 1.5 -2.34375 C 1.613281 -2.28125 1.703125 -2.1875 1.765625 -2.0625 C 1.835938 -1.945312 1.875 -1.8125 1.875 -1.65625 C 1.875 -1.519531 1.847656 -1.398438 1.796875 -1.296875 C 1.753906 -1.191406 1.691406 -1.101562 1.609375 -1.03125 C 1.523438 -0.96875 1.429688 -0.921875 1.328125 -0.890625 L 2.015625 0 L 1.34375 0 L 0.765625 -0.875 Z M 1.046875 -2.015625 L 0.75 -2.015625 L 0.75 -1.296875 L 1.046875 -1.296875 C 1.117188 -1.296875 1.1875 -1.328125 1.25 -1.390625 C 1.320312 -1.453125 1.359375 -1.539062 1.359375 -1.65625 C 1.359375 -1.769531 1.320312 -1.859375 1.25 -1.921875 C 1.1875 -1.984375 1.117188 -2.015625 1.046875 -2.015625 Z M 1.046875 -2.015625 "/></g></g></g><g fill="#7dd3fc" fill-opacity="1"><g transform="translate(204.146027, 91.995569)"><g><path d="M 1.625 -0.484375 L 1.625 0 L 0.21875 0 L 0.21875 -2.4375 L 1.625 -2.4375 L 1.625 -1.953125 L 0.75 -1.953125 L 0.75 -1.46875 L 1.59375 -1.46875 L 1.59375 -0.984375 L 0.75 -0.984375 L 0.75 -0.484375 Z M 1.625 -0.484375 "/></g></g></g><g fill="#7dd3fc" fill-opacity="1"><g transform="translate(206.315101, 91.995569)"><g><path d="M 2.140625 0 L 1.59375 0 L 0.75 -1.53125 L 0.75 0 L 0.21875 0 L 0.21875 -2.4375 L 0.75 -2.4375 L 1.59375 -0.921875 L 1.59375 -2.4375 L 2.140625 -2.4375 Z M 2.140625 0 "/></g></g></g><g fill="#7dd3fc" fill-opacity="1"><g transform="translate(208.987772, 91.995569)"><g><path d="M 1.984375 -0.828125 L 2.578125 -0.828125 C 2.523438 -0.671875 2.441406 -0.523438 2.328125 -0.390625 C 2.222656 -0.265625 2.09375 -0.164062 1.9375 -0.09375 C 1.789062 -0.0195312 1.628906 0.0195312 1.453125 0.03125 L 1.34375 0.265625 C 1.394531 0.242188 1.441406 0.238281 1.484375 0.25 C 1.535156 0.257812 1.578125 0.285156 1.609375 0.328125 C 1.640625 0.378906 1.65625 0.4375 1.65625 0.5 C 1.664062 0.5625 1.660156 0.617188 1.640625 0.671875 C 1.597656 0.765625 1.535156 0.828125 1.453125 0.859375 C 1.367188 0.890625 1.273438 0.898438 1.171875 0.890625 C 1.078125 0.890625 0.988281 0.867188 0.90625 0.828125 L 0.875 0.828125 L 0.984375 0.625 L 1 0.625 C 1.050781 0.644531 1.101562 0.660156 1.15625 0.671875 C 1.21875 0.679688 1.269531 0.675781 1.3125 0.65625 C 1.363281 0.632812 1.394531 0.609375 1.40625 0.578125 C 1.414062 0.546875 1.414062 0.515625 1.40625 0.484375 C 1.394531 0.460938 1.367188 0.445312 1.328125 0.4375 C 1.285156 0.4375 1.242188 0.4375 1.203125 0.4375 C 1.160156 0.445312 1.117188 0.453125 1.078125 0.453125 L 1.03125 0.46875 L 1.234375 0.03125 C 1.078125 0.0078125 0.929688 -0.0351562 0.796875 -0.109375 C 0.660156 -0.179688 0.539062 -0.269531 0.4375 -0.375 C 0.34375 -0.488281 0.265625 -0.617188 0.203125 -0.765625 C 0.148438 -0.910156 0.125 -1.0625 0.125 -1.21875 C 0.125 -1.394531 0.15625 -1.554688 0.21875 -1.703125 C 0.28125 -1.859375 0.367188 -1.992188 0.484375 -2.109375 C 0.609375 -2.222656 0.742188 -2.3125 0.890625 -2.375 C 1.046875 -2.445312 1.210938 -2.484375 1.390625 -2.484375 C 1.566406 -2.484375 1.734375 -2.441406 1.890625 -2.359375 C 2.054688 -2.285156 2.195312 -2.1875 2.3125 -2.0625 C 2.4375 -1.9375 2.523438 -1.789062 2.578125 -1.625 L 1.96875 -1.625 C 1.925781 -1.726562 1.847656 -1.8125 1.734375 -1.875 C 1.628906 -1.9375 1.515625 -1.96875 1.390625 -1.96875 C 1.253906 -1.96875 1.128906 -1.929688 1.015625 -1.859375 C 0.910156 -1.796875 0.828125 -1.707031 0.765625 -1.59375 C 0.703125 -1.488281 0.671875 -1.363281 0.671875 -1.21875 C 0.671875 -1.082031 0.703125 -0.957031 0.765625 -0.84375 C 0.828125 -0.726562 0.910156 -0.632812 1.015625 -0.5625 C 1.128906 -0.5 1.253906 -0.46875 1.390625 -0.46875 C 1.515625 -0.46875 1.628906 -0.5 1.734375 -0.5625 C 1.847656 -0.632812 1.929688 -0.722656 1.984375 -0.828125 Z M 1.984375 -0.828125 "/></g></g></g><g fill="#7dd3fc" fill-opacity="1"><g transform="translate(211.98059, 91.995569)"><g><path d="M 1.546875 -0.9375 L 1.234375 -1.796875 L 0.921875 -0.9375 Z M 2.453125 0 L 1.875 0 L 1.703125 -0.5 L 0.765625 -0.5 L 0.59375 0 L 0.015625 0 L 1.015625 -2.4375 L 1.46875 -2.4375 Z M 2.453125 0 "/></g></g></g><g fill="#7dd3fc" fill-opacity="1"><g transform="translate(214.781958, 91.995569)"><g/></g></g></svg>