<svg xmlns="http://www.w3.org/2000/svg" xmlns:xlink="http://www.w3.org/1999/xlink" width="200" zoomAndPan="magnify" viewBox="0 0 150 37.5" height="50" preserveAspectRatio="xMidYMid meet" version="1.0"><defs><g/><clipPath id="5de2076325"><path d="M 135 9 L 144 9 L 144 30 L 135 30 Z M 135 9 " clip-rule="nonzero"/></clipPath><clipPath id="0155a52312"><path d="M 143.179688 30.535156 L 119.902344 23.132812 L 125.734375 4.792969 L 149.011719 12.195312 Z M 143.179688 30.535156 " clip-rule="nonzero"/></clipPath><clipPath id="bbd7313bd2"><path d="M 143.179688 30.535156 L 119.902344 23.132812 L 125.734375 4.792969 L 149.011719 12.195312 Z M 143.179688 30.535156 " clip-rule="nonzero"/></clipPath><clipPath id="f519f7ceb4"><path d="M 125 5 L 134 5 L 134 8 L 125 8 Z M 125 5 " clip-rule="nonzero"/></clipPath><clipPath id="f5fb758022"><path d="M 143.179688 30.535156 L 119.902344 23.132812 L 125.734375 4.792969 L 149.011719 12.195312 Z M 143.179688 30.535156 " clip-rule="nonzero"/></clipPath><clipPath id="28d5565dc2"><path d="M 143.179688 30.535156 L 119.902344 23.132812 L 125.734375 4.792969 L 149.011719 12.195312 Z M 143.179688 30.535156 " clip-rule="nonzero"/></clipPath><clipPath id="2e5572b8d3"><path d="M 144 22 L 146 22 L 146 26 L 144 26 Z M 144 22 " clip-rule="nonzero"/></clipPath><clipPath id="38f4427276"><path d="M 143.179688 30.535156 L 119.902344 23.132812 L 125.734375 4.792969 L 149.011719 12.195312 Z M 143.179688 30.535156 " clip-rule="nonzero"/></clipPath><clipPath id="551501225d"><path d="M 143.179688 30.535156 L 119.902344 23.132812 L 125.734375 4.792969 L 149.011719 12.195312 Z M 143.179688 30.535156 " clip-rule="nonzero"/></clipPath><clipPath id="37381b9348"><path d="M 139 9 L 146 9 L 146 21 L 139 21 Z M 139 9 " clip-rule="nonzero"/></clipPath><clipPath id="bb3c6c6786"><path d="M 143.179688 30.535156 L 119.902344 23.132812 L 125.734375 4.792969 L 149.011719 12.195312 Z M 143.179688 30.535156 " clip-rule="nonzero"/></clipPath><clipPath id="48c1a6c067"><path d="M 143.179688 30.535156 L 119.902344 23.132812 L 125.734375 4.792969 L 149.011719 12.195312 Z M 143.179688 30.535156 " clip-rule="nonzero"/></clipPath></defs><g fill="#b9f1d6" fill-opacity="1"><g transform="translate(1.932843, 26.277695)"><g><path d="M 8.359375 -4.28125 C 8.359375 -4.757812 8.179688 -5.171875 7.828125 -5.515625 C 7.472656 -5.867188 7.054688 -6.046875 6.578125 -6.046875 L 4.53125 -6.046875 L 4.53125 -2.515625 L 6.578125 -2.515625 C 7.054688 -2.515625 7.472656 -2.6875 7.828125 -3.03125 C 8.179688 -3.382812 8.359375 -3.800781 8.359375 -4.28125 Z M 7.34375 -10.40625 C 7.34375 -10.882812 7.171875 -11.285156 6.828125 -11.609375 C 6.492188 -11.941406 6.097656 -12.109375 5.640625 -12.109375 L 4.53125 -12.109375 L 4.53125 -8.703125 L 5.640625 -8.703125 C 6.097656 -8.703125 6.492188 -8.867188 6.828125 -9.203125 C 7.171875 -9.546875 7.34375 -9.945312 7.34375 -10.40625 Z M 11.65625 -4.203125 C 11.65625 -2.941406 11.265625 -1.925781 10.484375 -1.15625 C 9.710938 -0.382812 8.625 0 7.21875 0 L 1.296875 0 L 1.296875 -14.65625 L 6.328125 -14.65625 C 7.160156 -14.65625 7.882812 -14.488281 8.5 -14.15625 C 9.113281 -13.820312 9.585938 -13.378906 9.921875 -12.828125 C 10.253906 -12.273438 10.421875 -11.660156 10.421875 -10.984375 C 10.421875 -10.242188 10.265625 -9.601562 9.953125 -9.0625 C 9.648438 -8.519531 9.226562 -8.128906 8.6875 -7.890625 C 9.5 -7.703125 10.195312 -7.285156 10.78125 -6.640625 C 11.363281 -6.003906 11.65625 -5.191406 11.65625 -4.203125 Z M 11.65625 -4.203125 "/></g></g></g><g fill="#b9f1d6" fill-opacity="1"><g transform="translate(13.796261, 26.277695)"><g><path d="M 9.34375 -14.65625 L 12.796875 -14.65625 L 12.796875 0 L 9.34375 0 L 9.34375 -5.875 L 4.53125 -5.875 L 4.53125 0 L 1.296875 0 L 1.296875 -14.65625 L 4.53125 -14.65625 L 4.53125 -8.8125 L 9.34375 -8.8125 Z M 9.34375 -14.65625 "/></g></g></g><g fill="#b9f1d6" fill-opacity="1"><g transform="translate(27.877333, 26.277695)"><g><path d="M 4.53125 -6.546875 L 4.53125 0 L 1.296875 0 L 1.296875 -14.65625 L 4.53125 -14.65625 L 4.53125 -8.109375 L 9.15625 -14.65625 L 13.296875 -14.65625 L 7.671875 -7.328125 L 13.515625 0 L 9.15625 0 Z M 4.53125 -6.546875 "/></g></g></g><g fill="#b9f1d6" fill-opacity="1"><g transform="translate(41.161777, 26.277695)"><g/></g></g><g fill="#b9f1d6" fill-opacity="1"><g transform="translate(46.544449, 26.277695)"><g><path d="M 4.484375 -2.96875 L 5.453125 -2.96875 C 6.285156 -2.96875 7.015625 -3.160156 7.640625 -3.546875 C 8.265625 -3.941406 8.75 -4.46875 9.09375 -5.125 C 9.445312 -5.789062 9.625 -6.523438 9.625 -7.328125 C 9.625 -8.140625 9.445312 -8.875 9.09375 -9.53125 C 8.75 -10.1875 8.265625 -10.703125 7.640625 -11.078125 C 7.015625 -11.460938 6.285156 -11.65625 5.453125 -11.65625 L 4.484375 -11.65625 Z M 1.296875 -14.65625 L 5.640625 -14.65625 C 6.679688 -14.65625 7.640625 -14.46875 8.515625 -14.09375 C 9.398438 -13.71875 10.171875 -13.195312 10.828125 -12.53125 C 11.492188 -11.875 12.007812 -11.097656 12.375 -10.203125 C 12.738281 -9.316406 12.921875 -8.359375 12.921875 -7.328125 C 12.921875 -6.296875 12.738281 -5.332031 12.375 -4.4375 C 12.007812 -3.550781 11.5 -2.773438 10.84375 -2.109375 C 10.195312 -1.453125 9.425781 -0.9375 8.53125 -0.5625 C 7.644531 -0.1875 6.679688 0 5.640625 0 L 1.296875 0 Z M 1.296875 -14.65625 "/></g></g></g><g fill="#b9f1d6" fill-opacity="1"><g transform="translate(60.216445, 26.277695)"><g><path d="M 4.21875 -5.875 L 8.46875 -5.875 C 8.46875 -5.875 8.445312 -5.960938 8.40625 -6.140625 C 8.375 -6.328125 8.289062 -6.535156 8.15625 -6.765625 C 8.019531 -6.992188 7.804688 -7.195312 7.515625 -7.375 C 7.234375 -7.5625 6.847656 -7.65625 6.359375 -7.65625 C 5.859375 -7.65625 5.460938 -7.5625 5.171875 -7.375 C 4.878906 -7.195312 4.664062 -6.992188 4.53125 -6.765625 C 4.394531 -6.535156 4.304688 -6.328125 4.265625 -6.140625 C 4.234375 -5.960938 4.21875 -5.875 4.21875 -5.875 Z M 11.578125 -4.953125 C 11.578125 -4.859375 11.570312 -4.757812 11.5625 -4.65625 C 11.550781 -4.550781 11.546875 -4.453125 11.546875 -4.359375 L 4.1875 -4.359375 C 4.1875 -3.992188 4.265625 -3.632812 4.421875 -3.28125 C 4.585938 -2.9375 4.828125 -2.648438 5.140625 -2.421875 C 5.453125 -2.203125 5.816406 -2.09375 6.234375 -2.09375 C 6.804688 -2.09375 7.253906 -2.242188 7.578125 -2.546875 C 7.910156 -2.859375 8.085938 -3.1875 8.109375 -3.53125 L 11.390625 -3.53125 C 11.117188 -2.28125 10.515625 -1.34375 9.578125 -0.71875 C 8.648438 -0.09375 7.554688 0.21875 6.296875 0.21875 C 5.203125 0.21875 4.238281 0.015625 3.40625 -0.390625 C 2.570312 -0.804688 1.921875 -1.382812 1.453125 -2.125 C 0.984375 -2.863281 0.75 -3.734375 0.75 -4.734375 C 0.75 -5.734375 0.988281 -6.601562 1.46875 -7.34375 C 1.957031 -8.09375 2.617188 -8.675781 3.453125 -9.09375 C 4.285156 -9.507812 5.234375 -9.71875 6.296875 -9.71875 C 7.253906 -9.71875 8.128906 -9.53125 8.921875 -9.15625 C 9.722656 -8.78125 10.363281 -8.238281 10.84375 -7.53125 C 11.332031 -6.832031 11.578125 -5.972656 11.578125 -4.953125 Z M 11.578125 -4.953125 "/></g></g></g><g fill="#b9f1d6" fill-opacity="1"><g transform="translate(72.532, 26.277695)"><g><path d="M 10.84375 -9.5 L 7.21875 0 L 3.40625 0 L -0.21875 -9.5 L 3.03125 -9.5 L 5.296875 -2.71875 L 7.5625 -9.5 Z M 10.84375 -9.5 "/></g></g></g><g fill="#e0e5ec" fill-opacity="1"><g transform="translate(83.149481, 26.277695)"><g><path d="M 14.265625 0 L 10.328125 0 L 7.203125 -5.078125 L 4.078125 0 L 0.125 0 L 5.21875 -7.328125 L 0.125 -14.65625 L 4.078125 -14.65625 L 7.203125 -9.5625 L 10.328125 -14.65625 L 14.265625 -14.65625 L 9.171875 -7.328125 Z M 14.265625 0 "/></g></g></g><g fill="#e0e5ec" fill-opacity="1"><g transform="translate(97.531983, 26.277695)"><g><path d="M 4.53125 -4.734375 C 4.53125 -4.316406 4.628906 -3.925781 4.828125 -3.5625 C 5.023438 -3.207031 5.289062 -2.921875 5.625 -2.703125 C 5.96875 -2.484375 6.351562 -2.375 6.78125 -2.375 C 7.21875 -2.375 7.601562 -2.484375 7.9375 -2.703125 C 8.28125 -2.921875 8.550781 -3.207031 8.75 -3.5625 C 8.945312 -3.925781 9.046875 -4.316406 9.046875 -4.734375 C 9.046875 -5.148438 8.945312 -5.535156 8.75 -5.890625 C 8.550781 -6.253906 8.28125 -6.546875 7.9375 -6.765625 C 7.601562 -6.992188 7.21875 -7.109375 6.78125 -7.109375 C 6.351562 -7.109375 5.96875 -6.992188 5.625 -6.765625 C 5.289062 -6.546875 5.023438 -6.253906 4.828125 -5.890625 C 4.628906 -5.535156 4.53125 -5.148438 4.53125 -4.734375 Z M 4.53125 5.390625 L 1.296875 5.390625 L 1.296875 -9.5 L 4.53125 -9.5 L 4.53125 -8.34375 C 4.945312 -8.851562 5.4375 -9.207031 6 -9.40625 C 6.570312 -9.613281 7.164062 -9.71875 7.78125 -9.71875 C 8.6875 -9.71875 9.492188 -9.484375 10.203125 -9.015625 C 10.910156 -8.546875 11.46875 -7.929688 11.875 -7.171875 C 12.289062 -6.421875 12.5 -5.609375 12.5 -4.734375 C 12.5 -3.859375 12.289062 -3.039062 11.875 -2.28125 C 11.46875 -1.53125 10.910156 -0.925781 10.203125 -0.46875 C 9.492188 -0.0078125 8.6875 0.21875 7.78125 0.21875 C 7.164062 0.21875 6.550781 0.113281 5.9375 -0.09375 C 5.320312 -0.300781 4.851562 -0.648438 4.53125 -1.140625 Z M 4.53125 5.390625 "/></g></g></g><g fill="#e0e5ec" fill-opacity="1"><g transform="translate(110.773365, 26.277695)"><g><path d="M 4.21875 -5.875 L 8.46875 -5.875 C 8.46875 -5.875 8.445312 -5.960938 8.40625 -6.140625 C 8.375 -6.328125 8.289062 -6.535156 8.15625 -6.765625 C 8.019531 -6.992188 7.804688 -7.195312 7.515625 -7.375 C 7.234375 -7.5625 6.847656 -7.65625 6.359375 -7.65625 C 5.859375 -7.65625 5.460938 -7.5625 5.171875 -7.375 C 4.878906 -7.195312 4.664062 -6.992188 4.53125 -6.765625 C 4.394531 -6.535156 4.304688 -6.328125 4.265625 -6.140625 C 4.234375 -5.960938 4.21875 -5.875 4.21875 -5.875 Z M 11.578125 -4.953125 C 11.578125 -4.859375 11.570312 -4.757812 11.5625 -4.65625 C 11.550781 -4.550781 11.546875 -4.453125 11.546875 -4.359375 L 4.1875 -4.359375 C 4.1875 -3.992188 4.265625 -3.632812 4.421875 -3.28125 C 4.585938 -2.9375 4.828125 -2.648438 5.140625 -2.421875 C 5.453125 -2.203125 5.816406 -2.09375 6.234375 -2.09375 C 6.804688 -2.09375 7.253906 -2.242188 7.578125 -2.546875 C 7.910156 -2.859375 8.085938 -3.1875 8.109375 -3.53125 L 11.390625 -3.53125 C 11.117188 -2.28125 10.515625 -1.34375 9.578125 -0.71875 C 8.648438 -0.09375 7.554688 0.21875 6.296875 0.21875 C 5.203125 0.21875 4.238281 0.015625 3.40625 -0.390625 C 2.570312 -0.804688 1.921875 -1.382812 1.453125 -2.125 C 0.984375 -2.863281 0.75 -3.734375 0.75 -4.734375 C 0.75 -5.734375 0.988281 -6.601562 1.46875 -7.34375 C 1.957031 -8.09375 2.617188 -8.675781 3.453125 -9.09375 C 4.285156 -9.507812 5.234375 -9.71875 6.296875 -9.71875 C 7.253906 -9.71875 8.128906 -9.53125 8.921875 -9.15625 C 9.722656 -8.78125 10.363281 -8.238281 10.84375 -7.53125 C 11.332031 -6.832031 11.578125 -5.972656 11.578125 -4.953125 Z M 11.578125 -4.953125 "/></g></g></g><g fill="#e0e5ec" fill-opacity="1"><g transform="translate(123.08892, 26.277695)"><g><path d="M 6.65625 -7.109375 C 6.25 -7.109375 5.882812 -6.988281 5.5625 -6.75 C 5.238281 -6.519531 4.984375 -6.222656 4.796875 -5.859375 C 4.617188 -5.503906 4.53125 -5.128906 4.53125 -4.734375 L 4.53125 0 L 1.296875 0 L 1.296875 -9.5 L 4.53125 -9.5 L 4.53125 -8.34375 C 4.769531 -8.695312 5.097656 -9.015625 5.515625 -9.296875 C 5.929688 -9.578125 6.4375 -9.71875 7.03125 -9.71875 C 7.164062 -9.71875 7.328125 -9.695312 7.515625 -9.65625 C 7.703125 -9.625 7.863281 -9.570312 8 -9.5 L 8 -6.578125 L 7.953125 -6.578125 C 7.796875 -6.773438 7.601562 -6.910156 7.375 -6.984375 C 7.144531 -7.066406 6.90625 -7.109375 6.65625 -7.109375 Z M 6.65625 -7.109375 "/></g></g></g><g fill="#e0e5ec" fill-opacity="1"><g transform="translate(131.292121, 26.277695)"><g><path d="M 5.359375 -7 L 5.359375 0 L 2.15625 0 L 2.15625 -7 L 0.4375 -7 L 0.4375 -9.5 L 2.15625 -9.5 L 2.15625 -13.125 L 5.359375 -13.125 L 5.359375 -9.5 L 7.09375 -9.5 L 7.09375 -7 Z M 5.359375 -7 "/></g></g></g><g clip-path="url(#5de2076325)"><g clip-path="url(#0155a52312)"><g clip-path="url(#bbd7313bd2)"><path fill="#b9f1d6" d="M 136.148438 9.125 C 136.171875 9.128906 136.1875 9.140625 136.207031 9.152344 C 139.359375 11.355469 141.707031 14.757812 142.65625 18.484375 C 143.609375 22.207031 143.171875 26.320312 141.460938 29.765625 C 141.410156 29.871094 141.285156 29.910156 141.179688 29.859375 C 141.074219 29.808594 141.035156 29.683594 141.085938 29.578125 C 142.75 26.222656 143.175781 22.214844 142.25 18.589844 C 141.328125 14.957031 139.035156 11.644531 135.964844 9.496094 C 135.871094 9.429688 135.847656 9.296875 135.914062 9.203125 C 135.96875 9.125 136.066406 9.097656 136.148438 9.125 Z M 136.148438 9.125 " fill-opacity="1" fill-rule="nonzero"/></g></g></g><g clip-path="url(#f519f7ceb4)"><g clip-path="url(#f5fb758022)"><g clip-path="url(#28d5565dc2)"><path fill="#b9f1d6" d="M 130.71875 6.390625 C 131.4375 6.617188 132.179688 6.945312 132.964844 7.375 C 133.066406 7.429688 133.105469 7.558594 133.046875 7.660156 C 132.992188 7.761719 132.863281 7.800781 132.761719 7.742188 C 130.257812 6.375 128.25 6.085938 125.828125 6.746094 C 125.714844 6.777344 125.601562 6.710938 125.570312 6.597656 C 125.539062 6.488281 125.605469 6.371094 125.71875 6.339844 C 127.492188 5.859375 129.050781 5.859375 130.71875 6.390625 Z M 130.71875 6.390625 " fill-opacity="1" fill-rule="nonzero"/></g></g></g><g clip-path="url(#2e5572b8d3)"><g clip-path="url(#38f4427276)"><g clip-path="url(#551501225d)"><path fill="#b9f1d6" d="M 145.089844 22.726562 C 145.140625 22.742188 145.175781 22.792969 145.175781 22.847656 C 145.171875 23.78125 145.027344 24.699219 144.753906 25.582031 C 144.730469 25.648438 144.660156 25.6875 144.59375 25.667969 C 144.53125 25.644531 144.492188 25.574219 144.511719 25.507812 C 144.78125 24.648438 144.917969 23.753906 144.925781 22.847656 C 144.925781 22.777344 144.980469 22.722656 145.050781 22.722656 C 145.0625 22.722656 145.078125 22.722656 145.089844 22.726562 Z M 145.089844 22.726562 " fill-opacity="1" fill-rule="nonzero"/></g></g></g><g clip-path="url(#37381b9348)"><g clip-path="url(#bb3c6c6786)"><g clip-path="url(#48c1a6c067)"><path fill="#b9f1d6" d="M 140.085938 9.863281 C 140.105469 9.867188 140.125 9.878906 140.140625 9.894531 C 142.960938 12.855469 144.722656 16.730469 145.105469 20.800781 C 145.113281 20.871094 145.0625 20.933594 144.992188 20.9375 C 144.925781 20.945312 144.863281 20.894531 144.855469 20.824219 C 144.476562 16.808594 142.738281 12.988281 139.957031 10.070312 C 139.910156 10.019531 139.910156 9.9375 139.960938 9.890625 C 139.996094 9.859375 140.042969 9.847656 140.085938 9.863281 Z M 140.085938 9.863281 " fill-opacity="1" fill-rule="nonzero"/></g></g></g><g fill="#e0e5ec" fill-opacity="1"><g transform="translate(49.873121, 31.079926)"><g><path d="M 1.15625 -0.375 C 1.207031 -0.375 1.265625 -0.378906 1.328125 -0.390625 C 1.398438 -0.410156 1.457031 -0.441406 1.5 -0.484375 C 1.550781 -0.523438 1.578125 -0.582031 1.578125 -0.65625 C 1.578125 -0.726562 1.550781 -0.78125 1.5 -0.8125 C 1.445312 -0.851562 1.378906 -0.882812 1.296875 -0.90625 C 1.210938 -0.9375 1.125 -0.960938 1.03125 -0.984375 C 0.9375 -1.015625 0.835938 -1.046875 0.734375 -1.078125 C 0.628906 -1.109375 0.535156 -1.148438 0.453125 -1.203125 C 0.378906 -1.253906 0.316406 -1.320312 0.265625 -1.40625 C 0.210938 -1.488281 0.1875 -1.59375 0.1875 -1.71875 C 0.1875 -1.84375 0.210938 -1.945312 0.265625 -2.03125 C 0.316406 -2.125 0.382812 -2.203125 0.46875 -2.265625 C 0.550781 -2.328125 0.644531 -2.375 0.75 -2.40625 C 0.863281 -2.4375 0.972656 -2.453125 1.078125 -2.453125 C 1.242188 -2.453125 1.398438 -2.425781 1.546875 -2.375 C 1.691406 -2.320312 1.8125 -2.238281 1.90625 -2.125 C 2 -2.007812 2.046875 -1.859375 2.046875 -1.671875 L 1.53125 -1.671875 C 1.519531 -1.796875 1.476562 -1.882812 1.40625 -1.9375 C 1.332031 -1.988281 1.226562 -2.015625 1.09375 -2.015625 C 1.039062 -2.015625 0.984375 -2.003906 0.921875 -1.984375 C 0.867188 -1.972656 0.820312 -1.945312 0.78125 -1.90625 C 0.75 -1.863281 0.734375 -1.816406 0.734375 -1.765625 C 0.734375 -1.703125 0.757812 -1.648438 0.8125 -1.609375 C 0.863281 -1.578125 0.929688 -1.546875 1.015625 -1.515625 C 1.097656 -1.492188 1.1875 -1.472656 1.28125 -1.453125 C 1.382812 -1.429688 1.484375 -1.40625 1.578125 -1.375 C 1.679688 -1.34375 1.769531 -1.300781 1.84375 -1.25 C 1.925781 -1.195312 1.992188 -1.128906 2.046875 -1.046875 C 2.097656 -0.960938 2.125 -0.851562 2.125 -0.71875 C 2.125 -0.570312 2.09375 -0.445312 2.03125 -0.34375 C 1.976562 -0.25 1.90625 -0.171875 1.8125 -0.109375 C 1.71875 -0.0546875 1.609375 -0.015625 1.484375 0.015625 C 1.367188 0.046875 1.25 0.0625 1.125 0.0625 C 0.945312 0.0625 0.78125 0.03125 0.625 -0.03125 C 0.46875 -0.09375 0.34375 -0.1875 0.25 -0.3125 C 0.15625 -0.4375 0.109375 -0.597656 0.109375 -0.796875 L 0.640625 -0.796875 C 0.648438 -0.648438 0.703125 -0.539062 0.796875 -0.46875 C 0.898438 -0.40625 1.019531 -0.375 1.15625 -0.375 Z M 1.15625 -0.375 "/></g></g></g><g fill="#e0e5ec" fill-opacity="1"><g transform="translate(52.425432, 31.079926)"><g><path d="M 2.078125 -1.203125 C 2.078125 -1.328125 2.039062 -1.441406 1.96875 -1.546875 C 1.90625 -1.660156 1.816406 -1.75 1.703125 -1.8125 C 1.597656 -1.882812 1.484375 -1.921875 1.359375 -1.921875 C 1.242188 -1.921875 1.128906 -1.882812 1.015625 -1.8125 C 0.910156 -1.75 0.820312 -1.660156 0.75 -1.546875 C 0.6875 -1.441406 0.65625 -1.328125 0.65625 -1.203125 C 0.65625 -1.085938 0.6875 -0.972656 0.75 -0.859375 C 0.820312 -0.753906 0.910156 -0.664062 1.015625 -0.59375 C 1.128906 -0.53125 1.242188 -0.5 1.359375 -0.5 C 1.484375 -0.5 1.597656 -0.53125 1.703125 -0.59375 C 1.816406 -0.664062 1.90625 -0.753906 1.96875 -0.859375 C 2.039062 -0.972656 2.078125 -1.085938 2.078125 -1.203125 Z M 2.609375 -1.203125 C 2.609375 -1.035156 2.570312 -0.875 2.5 -0.71875 C 2.4375 -0.570312 2.347656 -0.441406 2.234375 -0.328125 C 2.117188 -0.210938 1.988281 -0.125 1.84375 -0.0625 C 1.695312 0 1.535156 0.03125 1.359375 0.03125 C 1.203125 0.03125 1.046875 0 0.890625 -0.0625 C 0.742188 -0.125 0.613281 -0.210938 0.5 -0.328125 C 0.382812 -0.441406 0.289062 -0.570312 0.21875 -0.71875 C 0.15625 -0.875 0.125 -1.035156 0.125 -1.203125 C 0.125 -1.367188 0.15625 -1.523438 0.21875 -1.671875 C 0.289062 -1.828125 0.382812 -1.960938 0.5 -2.078125 C 0.613281 -2.191406 0.742188 -2.28125 0.890625 -2.34375 C 1.046875 -2.414062 1.203125 -2.453125 1.359375 -2.453125 C 1.535156 -2.453125 1.695312 -2.414062 1.84375 -2.34375 C 1.988281 -2.28125 2.117188 -2.191406 2.234375 -2.078125 C 2.347656 -1.960938 2.4375 -1.828125 2.5 -1.671875 C 2.570312 -1.523438 2.609375 -1.367188 2.609375 -1.203125 Z M 2.609375 -1.203125 "/></g></g></g><g fill="#e0e5ec" fill-opacity="1"><g transform="translate(55.474716, 31.079926)"><g><path d="M 0.21875 0 L 0.21875 -2.40625 L 0.75 -2.40625 L 0.75 -0.484375 L 1.609375 -0.484375 L 1.609375 0 Z M 0.21875 0 "/></g></g></g><g fill="#e0e5ec" fill-opacity="1"><g transform="translate(57.526503, 31.079926)"><g><path d="M 1.625 -2.40625 L 2.15625 -2.40625 L 2.15625 -0.9375 C 2.15625 -0.613281 2.066406 -0.367188 1.890625 -0.203125 C 1.710938 -0.046875 1.46875 0.03125 1.15625 0.03125 C 0.84375 0.03125 0.597656 -0.046875 0.421875 -0.203125 C 0.242188 -0.367188 0.15625 -0.613281 0.15625 -0.9375 L 0.15625 -2.40625 L 0.6875 -2.40625 L 0.6875 -1.015625 C 0.6875 -0.847656 0.71875 -0.71875 0.78125 -0.625 C 0.851562 -0.539062 0.976562 -0.5 1.15625 -0.5 C 1.332031 -0.5 1.453125 -0.539062 1.515625 -0.625 C 1.585938 -0.71875 1.625 -0.847656 1.625 -1.015625 Z M 1.625 -2.40625 "/></g></g></g><g fill="#e0e5ec" fill-opacity="1"><g transform="translate(60.156908, 31.079926)"><g><path d="M 1.953125 -0.8125 L 2.546875 -0.8125 C 2.492188 -0.65625 2.410156 -0.515625 2.296875 -0.390625 C 2.191406 -0.265625 2.066406 -0.164062 1.921875 -0.09375 C 1.773438 -0.0195312 1.613281 0.0195312 1.4375 0.03125 L 1.328125 0.25 C 1.378906 0.238281 1.425781 0.238281 1.46875 0.25 C 1.519531 0.257812 1.554688 0.285156 1.578125 0.328125 C 1.609375 0.378906 1.628906 0.429688 1.640625 0.484375 C 1.648438 0.546875 1.640625 0.609375 1.609375 0.671875 C 1.578125 0.753906 1.519531 0.8125 1.4375 0.84375 C 1.351562 0.875 1.265625 0.882812 1.171875 0.875 C 1.078125 0.875 0.984375 0.859375 0.890625 0.828125 L 0.875 0.8125 L 0.96875 0.609375 L 0.984375 0.625 C 1.035156 0.632812 1.085938 0.644531 1.140625 0.65625 C 1.203125 0.664062 1.253906 0.660156 1.296875 0.640625 C 1.335938 0.628906 1.363281 0.609375 1.375 0.578125 C 1.394531 0.546875 1.398438 0.515625 1.390625 0.484375 C 1.378906 0.460938 1.351562 0.445312 1.3125 0.4375 C 1.269531 0.425781 1.226562 0.425781 1.1875 0.4375 C 1.144531 0.445312 1.101562 0.453125 1.0625 0.453125 L 1.015625 0.46875 L 1.21875 0.03125 C 1.0625 0.0078125 0.914062 -0.0351562 0.78125 -0.109375 C 0.65625 -0.179688 0.539062 -0.269531 0.4375 -0.375 C 0.34375 -0.488281 0.265625 -0.613281 0.203125 -0.75 C 0.148438 -0.894531 0.125 -1.046875 0.125 -1.203125 C 0.125 -1.378906 0.15625 -1.539062 0.21875 -1.6875 C 0.28125 -1.832031 0.367188 -1.960938 0.484375 -2.078125 C 0.597656 -2.191406 0.726562 -2.28125 0.875 -2.34375 C 1.03125 -2.414062 1.191406 -2.453125 1.359375 -2.453125 C 1.546875 -2.453125 1.71875 -2.414062 1.875 -2.34375 C 2.03125 -2.269531 2.164062 -2.164062 2.28125 -2.03125 C 2.40625 -1.90625 2.492188 -1.757812 2.546875 -1.59375 L 1.953125 -1.59375 C 1.898438 -1.707031 1.816406 -1.796875 1.703125 -1.859375 C 1.597656 -1.921875 1.484375 -1.953125 1.359375 -1.953125 C 1.234375 -1.953125 1.113281 -1.914062 1 -1.84375 C 0.894531 -1.78125 0.8125 -1.691406 0.75 -1.578125 C 0.6875 -1.460938 0.65625 -1.335938 0.65625 -1.203125 C 0.65625 -1.066406 0.6875 -0.941406 0.75 -0.828125 C 0.8125 -0.710938 0.894531 -0.625 1 -0.5625 C 1.113281 -0.5 1.234375 -0.46875 1.359375 -0.46875 C 1.484375 -0.46875 1.597656 -0.5 1.703125 -0.5625 C 1.816406 -0.625 1.898438 -0.707031 1.953125 -0.8125 Z M 1.953125 -0.8125 "/></g></g></g><g fill="#e0e5ec" fill-opacity="1"><g transform="translate(63.110346, 31.079926)"><g><path d="M 1.71875 -3.0625 L 2.046875 -3.0625 C 2.046875 -2.914062 2.003906 -2.796875 1.921875 -2.703125 C 1.847656 -2.609375 1.75 -2.5625 1.625 -2.5625 C 1.5625 -2.5625 1.507812 -2.570312 1.46875 -2.59375 C 1.425781 -2.613281 1.382812 -2.632812 1.34375 -2.65625 C 1.3125 -2.6875 1.273438 -2.707031 1.234375 -2.71875 C 1.203125 -2.738281 1.164062 -2.75 1.125 -2.75 C 1.0625 -2.75 1.019531 -2.726562 1 -2.6875 C 0.976562 -2.644531 0.96875 -2.609375 0.96875 -2.578125 L 0.671875 -2.578125 C 0.671875 -2.660156 0.6875 -2.738281 0.71875 -2.8125 C 0.75 -2.894531 0.796875 -2.960938 0.859375 -3.015625 C 0.921875 -3.066406 1 -3.09375 1.09375 -3.09375 C 1.175781 -3.09375 1.242188 -3.078125 1.296875 -3.046875 C 1.359375 -3.015625 1.410156 -2.984375 1.453125 -2.953125 C 1.492188 -2.929688 1.535156 -2.921875 1.578125 -2.921875 C 1.609375 -2.921875 1.640625 -2.925781 1.671875 -2.9375 C 1.703125 -2.945312 1.71875 -2.988281 1.71875 -3.0625 Z M 2.078125 -1.203125 C 2.078125 -1.328125 2.039062 -1.441406 1.96875 -1.546875 C 1.90625 -1.660156 1.816406 -1.75 1.703125 -1.8125 C 1.597656 -1.882812 1.484375 -1.921875 1.359375 -1.921875 C 1.242188 -1.921875 1.128906 -1.882812 1.015625 -1.8125 C 0.910156 -1.75 0.820312 -1.660156 0.75 -1.546875 C 0.6875 -1.441406 0.65625 -1.328125 0.65625 -1.203125 C 0.65625 -1.085938 0.6875 -0.972656 0.75 -0.859375 C 0.820312 -0.753906 0.910156 -0.664062 1.015625 -0.59375 C 1.128906 -0.53125 1.242188 -0.5 1.359375 -0.5 C 1.484375 -0.5 1.597656 -0.53125 1.703125 -0.59375 C 1.816406 -0.664062 1.90625 -0.753906 1.96875 -0.859375 C 2.039062 -0.972656 2.078125 -1.085938 2.078125 -1.203125 Z M 2.609375 -1.203125 C 2.609375 -1.035156 2.570312 -0.875 2.5 -0.71875 C 2.4375 -0.570312 2.347656 -0.441406 2.234375 -0.328125 C 2.117188 -0.210938 1.988281 -0.125 1.84375 -0.0625 C 1.695312 0 1.535156 0.03125 1.359375 0.03125 C 1.203125 0.03125 1.046875 0 0.890625 -0.0625 C 0.742188 -0.125 0.613281 -0.210938 0.5 -0.328125 C 0.382812 -0.441406 0.289062 -0.570312 0.21875 -0.71875 C 0.15625 -0.875 0.125 -1.035156 0.125 -1.203125 C 0.125 -1.367188 0.15625 -1.523438 0.21875 -1.671875 C 0.289062 -1.828125 0.382812 -1.960938 0.5 -2.078125 C 0.613281 -2.191406 0.742188 -2.28125 0.890625 -2.34375 C 1.046875 -2.414062 1.203125 -2.453125 1.359375 -2.453125 C 1.535156 -2.453125 1.695312 -2.414062 1.84375 -2.34375 C 1.988281 -2.28125 2.117188 -2.191406 2.234375 -2.078125 C 2.347656 -1.960938 2.4375 -1.828125 2.5 -1.671875 C 2.570312 -1.523438 2.609375 -1.367188 2.609375 -1.203125 Z M 2.609375 -1.203125 "/></g></g></g><g fill="#e0e5ec" fill-opacity="1"><g transform="translate(66.15963, 31.079926)"><g><path d="M 1.609375 -0.484375 L 1.609375 0 L 0.21875 0 L 0.21875 -2.40625 L 1.609375 -2.40625 L 1.609375 -1.921875 L 0.75 -1.921875 L 0.75 -1.453125 L 1.578125 -1.453125 L 1.578125 -0.96875 L 0.75 -0.96875 L 0.75 -0.484375 Z M 1.609375 -0.484375 "/></g></g></g><g fill="#e0e5ec" fill-opacity="1"><g transform="translate(68.300163, 31.079926)"><g><path d="M 1.15625 -0.375 C 1.207031 -0.375 1.265625 -0.378906 1.328125 -0.390625 C 1.398438 -0.410156 1.457031 -0.441406 1.5 -0.484375 C 1.550781 -0.523438 1.578125 -0.582031 1.578125 -0.65625 C 1.578125 -0.726562 1.550781 -0.78125 1.5 -0.8125 C 1.445312 -0.851562 1.378906 -0.882812 1.296875 -0.90625 C 1.210938 -0.9375 1.125 -0.960938 1.03125 -0.984375 C 0.9375 -1.015625 0.835938 -1.046875 0.734375 -1.078125 C 0.628906 -1.109375 0.535156 -1.148438 0.453125 -1.203125 C 0.378906 -1.253906 0.316406 -1.320312 0.265625 -1.40625 C 0.210938 -1.488281 0.1875 -1.59375 0.1875 -1.71875 C 0.1875 -1.84375 0.210938 -1.945312 0.265625 -2.03125 C 0.316406 -2.125 0.382812 -2.203125 0.46875 -2.265625 C 0.550781 -2.328125 0.644531 -2.375 0.75 -2.40625 C 0.863281 -2.4375 0.972656 -2.453125 1.078125 -2.453125 C 1.242188 -2.453125 1.398438 -2.425781 1.546875 -2.375 C 1.691406 -2.320312 1.8125 -2.238281 1.90625 -2.125 C 2 -2.007812 2.046875 -1.859375 2.046875 -1.671875 L 1.53125 -1.671875 C 1.519531 -1.796875 1.476562 -1.882812 1.40625 -1.9375 C 1.332031 -1.988281 1.226562 -2.015625 1.09375 -2.015625 C 1.039062 -2.015625 0.984375 -2.003906 0.921875 -1.984375 C 0.867188 -1.972656 0.820312 -1.945312 0.78125 -1.90625 C 0.75 -1.863281 0.734375 -1.816406 0.734375 -1.765625 C 0.734375 -1.703125 0.757812 -1.648438 0.8125 -1.609375 C 0.863281 -1.578125 0.929688 -1.546875 1.015625 -1.515625 C 1.097656 -1.492188 1.1875 -1.472656 1.28125 -1.453125 C 1.382812 -1.429688 1.484375 -1.40625 1.578125 -1.375 C 1.679688 -1.34375 1.769531 -1.300781 1.84375 -1.25 C 1.925781 -1.195312 1.992188 -1.128906 2.046875 -1.046875 C 2.097656 -0.960938 2.125 -0.851562 2.125 -0.71875 C 2.125 -0.570312 2.09375 -0.445312 2.03125 -0.34375 C 1.976562 -0.25 1.90625 -0.171875 1.8125 -0.109375 C 1.71875 -0.0546875 1.609375 -0.015625 1.484375 0.015625 C 1.367188 0.046875 1.25 0.0625 1.125 0.0625 C 0.945312 0.0625 0.78125 0.03125 0.625 -0.03125 C 0.46875 -0.09375 0.34375 -0.1875 0.25 -0.3125 C 0.15625 -0.4375 0.109375 -0.597656 0.109375 -0.796875 L 0.640625 -0.796875 C 0.648438 -0.648438 0.703125 -0.539062 0.796875 -0.46875 C 0.898438 -0.40625 1.019531 -0.375 1.15625 -0.375 Z M 1.15625 -0.375 "/></g></g></g><g fill="#e0e5ec" fill-opacity="1"><g transform="translate(70.852473, 31.079926)"><g/></g></g><g fill="#e0e5ec" fill-opacity="1"><g transform="translate(72.055855, 31.079926)"><g><path d="M 0.734375 -0.484375 L 0.890625 -0.484375 C 1.035156 -0.484375 1.15625 -0.515625 1.25 -0.578125 C 1.351562 -0.648438 1.429688 -0.738281 1.484375 -0.84375 C 1.546875 -0.945312 1.578125 -1.066406 1.578125 -1.203125 C 1.578125 -1.335938 1.546875 -1.457031 1.484375 -1.5625 C 1.429688 -1.675781 1.351562 -1.765625 1.25 -1.828125 C 1.15625 -1.890625 1.035156 -1.921875 0.890625 -1.921875 L 0.734375 -1.921875 Z M 0.21875 -2.40625 L 0.921875 -2.40625 C 1.097656 -2.40625 1.257812 -2.375 1.40625 -2.3125 C 1.550781 -2.257812 1.675781 -2.175781 1.78125 -2.0625 C 1.894531 -1.957031 1.976562 -1.832031 2.03125 -1.6875 C 2.09375 -1.539062 2.125 -1.378906 2.125 -1.203125 C 2.125 -1.035156 2.09375 -0.878906 2.03125 -0.734375 C 1.976562 -0.585938 1.894531 -0.457031 1.78125 -0.34375 C 1.675781 -0.238281 1.550781 -0.15625 1.40625 -0.09375 C 1.257812 -0.03125 1.097656 0 0.921875 0 L 0.21875 0 Z M 0.21875 -2.40625 "/></g></g></g><g fill="#e0e5ec" fill-opacity="1"><g transform="translate(74.625915, 31.079926)"><g><path d="M 0.75 0 L 0.21875 0 L 0.21875 -2.40625 L 0.75 -2.40625 Z M 0.75 0 "/></g></g></g><g fill="#e0e5ec" fill-opacity="1"><g transform="translate(75.900293, 31.079926)"><g><path d="M 1.421875 -1.953125 C 1.296875 -1.953125 1.175781 -1.914062 1.0625 -1.84375 C 0.957031 -1.78125 0.875 -1.691406 0.8125 -1.578125 C 0.75 -1.460938 0.71875 -1.335938 0.71875 -1.203125 C 0.71875 -1.066406 0.75 -0.941406 0.8125 -0.828125 C 0.875 -0.710938 0.957031 -0.617188 1.0625 -0.546875 C 1.175781 -0.484375 1.296875 -0.453125 1.421875 -0.453125 C 1.492188 -0.453125 1.570312 -0.460938 1.65625 -0.484375 C 1.75 -0.503906 1.832031 -0.546875 1.90625 -0.609375 C 1.976562 -0.671875 2.035156 -0.765625 2.078125 -0.890625 L 1.46875 -0.890625 L 1.46875 -1.28125 L 2.65625 -1.28125 L 2.65625 -1.203125 C 2.65625 -1.035156 2.625 -0.875 2.5625 -0.71875 C 2.5 -0.570312 2.410156 -0.441406 2.296875 -0.328125 C 2.179688 -0.210938 2.046875 -0.125 1.890625 -0.0625 C 1.742188 0 1.585938 0.03125 1.421875 0.03125 C 1.242188 0.03125 1.082031 0 0.9375 -0.0625 C 0.789062 -0.125 0.660156 -0.210938 0.546875 -0.328125 C 0.429688 -0.441406 0.335938 -0.570312 0.265625 -0.71875 C 0.203125 -0.875 0.171875 -1.035156 0.171875 -1.203125 C 0.171875 -1.378906 0.203125 -1.539062 0.265625 -1.6875 C 0.335938 -1.832031 0.429688 -1.960938 0.546875 -2.078125 C 0.660156 -2.191406 0.789062 -2.28125 0.9375 -2.34375 C 1.082031 -2.414062 1.242188 -2.453125 1.421875 -2.453125 C 1.597656 -2.453125 1.765625 -2.414062 1.921875 -2.34375 C 2.078125 -2.269531 2.210938 -2.164062 2.328125 -2.03125 C 2.453125 -1.90625 2.539062 -1.757812 2.59375 -1.59375 L 2.015625 -1.59375 C 1.953125 -1.726562 1.863281 -1.820312 1.75 -1.875 C 1.644531 -1.925781 1.535156 -1.953125 1.421875 -1.953125 Z M 1.421875 -1.953125 "/></g></g></g><g fill="#e0e5ec" fill-opacity="1"><g transform="translate(78.999274, 31.079926)"><g><path d="M 0.75 0 L 0.21875 0 L 0.21875 -2.40625 L 0.75 -2.40625 Z M 0.75 0 "/></g></g></g><g fill="#e0e5ec" fill-opacity="1"><g transform="translate(80.273653, 31.079926)"><g><path d="M 1.234375 -1.921875 L 1.234375 0 L 0.703125 0 L 0.703125 -1.921875 L 0.015625 -1.921875 L 0.015625 -2.40625 L 1.921875 -2.40625 L 1.921875 -1.921875 Z M 1.234375 -1.921875 "/></g></g></g><g fill="#e0e5ec" fill-opacity="1"><g transform="translate(82.53488, 31.079926)"><g><path d="M 1.53125 -0.921875 L 1.21875 -1.78125 L 0.921875 -0.921875 Z M 2.421875 0 L 1.859375 0 L 1.6875 -0.484375 L 0.765625 -0.484375 L 0.59375 0 L 0.015625 0 L 1 -2.40625 L 1.453125 -2.40625 Z M 2.421875 0 "/></g></g></g><g fill="#e0e5ec" fill-opacity="1"><g transform="translate(85.296627, 31.079926)"><g><path d="M 0.75 0 L 0.21875 0 L 0.21875 -2.40625 L 0.75 -2.40625 Z M 0.75 0 "/></g></g></g><g fill="#e0e5ec" fill-opacity="1"><g transform="translate(86.571005, 31.079926)"><g><path d="M 1.15625 -0.375 C 1.207031 -0.375 1.265625 -0.378906 1.328125 -0.390625 C 1.398438 -0.410156 1.457031 -0.441406 1.5 -0.484375 C 1.550781 -0.523438 1.578125 -0.582031 1.578125 -0.65625 C 1.578125 -0.726562 1.550781 -0.78125 1.5 -0.8125 C 1.445312 -0.851562 1.378906 -0.882812 1.296875 -0.90625 C 1.210938 -0.9375 1.125 -0.960938 1.03125 -0.984375 C 0.9375 -1.015625 0.835938 -1.046875 0.734375 -1.078125 C 0.628906 -1.109375 0.535156 -1.148438 0.453125 -1.203125 C 0.378906 -1.253906 0.316406 -1.320312 0.265625 -1.40625 C 0.210938 -1.488281 0.1875 -1.59375 0.1875 -1.71875 C 0.1875 -1.84375 0.210938 -1.945312 0.265625 -2.03125 C 0.316406 -2.125 0.382812 -2.203125 0.46875 -2.265625 C 0.550781 -2.328125 0.644531 -2.375 0.75 -2.40625 C 0.863281 -2.4375 0.972656 -2.453125 1.078125 -2.453125 C 1.242188 -2.453125 1.398438 -2.425781 1.546875 -2.375 C 1.691406 -2.320312 1.8125 -2.238281 1.90625 -2.125 C 2 -2.007812 2.046875 -1.859375 2.046875 -1.671875 L 1.53125 -1.671875 C 1.519531 -1.796875 1.476562 -1.882812 1.40625 -1.9375 C 1.332031 -1.988281 1.226562 -2.015625 1.09375 -2.015625 C 1.039062 -2.015625 0.984375 -2.003906 0.921875 -1.984375 C 0.867188 -1.972656 0.820312 -1.945312 0.78125 -1.90625 C 0.75 -1.863281 0.734375 -1.816406 0.734375 -1.765625 C 0.734375 -1.703125 0.757812 -1.648438 0.8125 -1.609375 C 0.863281 -1.578125 0.929688 -1.546875 1.015625 -1.515625 C 1.097656 -1.492188 1.1875 -1.472656 1.28125 -1.453125 C 1.382812 -1.429688 1.484375 -1.40625 1.578125 -1.375 C 1.679688 -1.34375 1.769531 -1.300781 1.84375 -1.25 C 1.925781 -1.195312 1.992188 -1.128906 2.046875 -1.046875 C 2.097656 -0.960938 2.125 -0.851562 2.125 -0.71875 C 2.125 -0.570312 2.09375 -0.445312 2.03125 -0.34375 C 1.976562 -0.25 1.90625 -0.171875 1.8125 -0.109375 C 1.71875 -0.0546875 1.609375 -0.015625 1.484375 0.015625 C 1.367188 0.046875 1.25 0.0625 1.125 0.0625 C 0.945312 0.0625 0.78125 0.03125 0.625 -0.03125 C 0.46875 -0.09375 0.34375 -0.1875 0.25 -0.3125 C 0.15625 -0.4375 0.109375 -0.597656 0.109375 -0.796875 L 0.640625 -0.796875 C 0.648438 -0.648438 0.703125 -0.539062 0.796875 -0.46875 C 0.898438 -0.40625 1.019531 -0.375 1.15625 -0.375 Z M 1.15625 -0.375 "/></g></g></g><g fill="#e0e5ec" fill-opacity="1"><g transform="translate(89.123317, 31.079926)"><g/></g></g><g fill="#e0e5ec" fill-opacity="1"><g transform="translate(90.326696, 31.079926)"><g><path d="M 2.078125 -1.203125 C 2.078125 -1.328125 2.039062 -1.441406 1.96875 -1.546875 C 1.90625 -1.660156 1.816406 -1.75 1.703125 -1.8125 C 1.597656 -1.882812 1.484375 -1.921875 1.359375 -1.921875 C 1.242188 -1.921875 1.128906 -1.882812 1.015625 -1.8125 C 0.910156 -1.75 0.820312 -1.660156 0.75 -1.546875 C 0.6875 -1.441406 0.65625 -1.328125 0.65625 -1.203125 C 0.65625 -1.085938 0.6875 -0.972656 0.75 -0.859375 C 0.820312 -0.753906 0.910156 -0.664062 1.015625 -0.59375 C 1.128906 -0.53125 1.242188 -0.5 1.359375 -0.5 C 1.484375 -0.5 1.597656 -0.53125 1.703125 -0.59375 C 1.816406 -0.664062 1.90625 -0.753906 1.96875 -0.859375 C 2.039062 -0.972656 2.078125 -1.085938 2.078125 -1.203125 Z M 2.203125 -0.296875 L 2.46875 -0.421875 L 2.75 -0.421875 L 2.75 0 L 1.65625 0 C 1.5625 0.0195312 1.460938 0.03125 1.359375 0.03125 C 1.203125 0.03125 1.046875 0 0.890625 -0.0625 C 0.742188 -0.125 0.613281 -0.210938 0.5 -0.328125 C 0.382812 -0.441406 0.289062 -0.570312 0.21875 -0.71875 C 0.15625 -0.875 0.125 -1.035156 0.125 -1.203125 C 0.125 -1.367188 0.15625 -1.523438 0.21875 -1.671875 C 0.289062 -1.828125 0.382812 -1.960938 0.5 -2.078125 C 0.613281 -2.191406 0.742188 -2.28125 0.890625 -2.34375 C 1.046875 -2.414062 1.203125 -2.453125 1.359375 -2.453125 C 1.535156 -2.453125 1.695312 -2.414062 1.84375 -2.34375 C 1.988281 -2.28125 2.117188 -2.191406 2.234375 -2.078125 C 2.347656 -1.960938 2.4375 -1.828125 2.5 -1.671875 C 2.570312 -1.523438 2.609375 -1.367188 2.609375 -1.203125 C 2.609375 -1.023438 2.570312 -0.859375 2.5 -0.703125 C 2.425781 -0.546875 2.328125 -0.410156 2.203125 -0.296875 Z M 2.203125 -0.296875 "/></g></g></g><g fill="#e0e5ec" fill-opacity="1"><g transform="translate(93.397278, 31.079926)"><g><path d="M 1.625 -2.40625 L 2.15625 -2.40625 L 2.15625 -0.9375 C 2.15625 -0.613281 2.066406 -0.367188 1.890625 -0.203125 C 1.710938 -0.046875 1.46875 0.03125 1.15625 0.03125 C 0.84375 0.03125 0.597656 -0.046875 0.421875 -0.203125 C 0.242188 -0.367188 0.15625 -0.613281 0.15625 -0.9375 L 0.15625 -2.40625 L 0.6875 -2.40625 L 0.6875 -1.015625 C 0.6875 -0.847656 0.71875 -0.71875 0.78125 -0.625 C 0.851562 -0.539062 0.976562 -0.5 1.15625 -0.5 C 1.332031 -0.5 1.453125 -0.539062 1.515625 -0.625 C 1.585938 -0.71875 1.625 -0.847656 1.625 -1.015625 Z M 1.625 -2.40625 "/></g></g></g><g fill="#e0e5ec" fill-opacity="1"><g transform="translate(96.027681, 31.079926)"><g><path d="M 1.609375 -0.484375 L 1.609375 0 L 0.21875 0 L 0.21875 -2.40625 L 1.609375 -2.40625 L 1.609375 -1.921875 L 0.75 -1.921875 L 0.75 -1.453125 L 1.578125 -1.453125 L 1.578125 -0.96875 L 0.75 -0.96875 L 0.75 -0.484375 Z M 1.609375 -0.484375 "/></g></g></g><g fill="#e0e5ec" fill-opacity="1"><g transform="translate(98.169588, 31.079926)"><g/></g></g><g fill="#e0e5ec" fill-opacity="1"><g transform="translate(99.372969, 31.079926)"><g/></g></g><g fill="#e0e5ec" fill-opacity="1"><g transform="translate(100.57635, 31.079926)"><g/></g></g><g fill="#e0e5ec" fill-opacity="1"><g transform="translate(101.779731, 31.079926)"><g/></g></g><g fill="#b9f1d6" fill-opacity="1"><g transform="translate(102.985832, 31.079926)"><g><path d="M 1.578125 -0.96875 L 0.75 -0.96875 L 0.75 0 L 0.21875 0 L 0.21875 -2.40625 L 1.609375 -2.40625 L 1.609375 -1.921875 L 0.75 -1.921875 L 0.75 -1.453125 L 1.578125 -1.453125 Z M 1.578125 -0.96875 "/></g></g></g><g fill="#b9f1d6" fill-opacity="1"><g transform="translate(105.090869, 31.079926)"><g><path d="M 1.53125 -0.921875 L 1.21875 -1.78125 L 0.921875 -0.921875 Z M 2.421875 0 L 1.859375 0 L 1.6875 -0.484375 L 0.765625 -0.484375 L 0.59375 0 L 0.015625 0 L 1 -2.40625 L 1.453125 -2.40625 Z M 2.421875 0 "/></g></g></g><g fill="#b9f1d6" fill-opacity="1"><g transform="translate(107.852615, 31.079926)"><g><path d="M 1.890625 -0.484375 L 1.890625 0 L 0.078125 0 L 1.078125 -1.921875 L 0.140625 -1.921875 L 0.140625 -2.40625 L 1.9375 -2.40625 L 0.9375 -0.484375 Z M 1.890625 -0.484375 "/></g></g></g><g fill="#b9f1d6" fill-opacity="1"><g transform="translate(110.184839, 31.079926)"><g><path d="M 1.609375 -0.484375 L 1.609375 0 L 0.21875 0 L 0.21875 -2.40625 L 1.609375 -2.40625 L 1.609375 -1.921875 L 0.75 -1.921875 L 0.75 -1.453125 L 1.578125 -1.453125 L 1.578125 -0.96875 L 0.75 -0.96875 L 0.75 -0.484375 Z M 1.609375 -0.484375 "/></g></g></g><g fill="#b9f1d6" fill-opacity="1"><g transform="translate(112.325372, 31.079926)"><g><path d="M 3.21875 0 L 2.640625 0 L 2.359375 -1.65625 L 1.875 0 L 1.359375 0 L 0.890625 -1.65625 L 0.609375 0 L 0.015625 0 L 0.484375 -2.40625 L 1.125 -2.40625 L 1.625 -0.71875 L 2.125 -2.40625 L 2.75 -2.40625 Z M 3.21875 0 "/></g></g></g><g fill="#b9f1d6" fill-opacity="1"><g transform="translate(115.882276, 31.079926)"><g/></g></g><g fill="#b9f1d6" fill-opacity="1"><g transform="translate(117.085657, 31.079926)"><g><path d="M 1.53125 -0.921875 L 1.21875 -1.78125 L 0.921875 -0.921875 Z M 2.421875 0 L 1.859375 0 L 1.6875 -0.484375 L 0.765625 -0.484375 L 0.59375 0 L 0.015625 0 L 1 -2.40625 L 1.453125 -2.40625 Z M 2.421875 0 "/></g></g></g><g fill="#b9f1d6" fill-opacity="1"><g transform="translate(119.847404, 31.079926)"><g/></g></g><g fill="#b9f1d6" fill-opacity="1"><g transform="translate(121.050786, 31.079926)"><g><path d="M 0.734375 -0.484375 L 0.890625 -0.484375 C 1.035156 -0.484375 1.15625 -0.515625 1.25 -0.578125 C 1.351562 -0.648438 1.429688 -0.738281 1.484375 -0.84375 C 1.546875 -0.945312 1.578125 -1.066406 1.578125 -1.203125 C 1.578125 -1.335938 1.546875 -1.457031 1.484375 -1.5625 C 1.429688 -1.675781 1.351562 -1.765625 1.25 -1.828125 C 1.15625 -1.890625 1.035156 -1.921875 0.890625 -1.921875 L 0.734375 -1.921875 Z M 0.21875 -2.40625 L 0.921875 -2.40625 C 1.097656 -2.40625 1.257812 -2.375 1.40625 -2.3125 C 1.550781 -2.257812 1.675781 -2.175781 1.78125 -2.0625 C 1.894531 -1.957031 1.976562 -1.832031 2.03125 -1.6875 C 2.09375 -1.539062 2.125 -1.378906 2.125 -1.203125 C 2.125 -1.035156 2.09375 -0.878906 2.03125 -0.734375 C 1.976562 -0.585938 1.894531 -0.457031 1.78125 -0.34375 C 1.675781 -0.238281 1.550781 -0.15625 1.40625 -0.09375 C 1.257812 -0.03125 1.097656 0 0.921875 0 L 0.21875 0 Z M 0.21875 -2.40625 "/></g></g></g><g fill="#b9f1d6" fill-opacity="1"><g transform="translate(123.620844, 31.079926)"><g><path d="M 0.75 0 L 0.21875 0 L 0.21875 -2.40625 L 0.75 -2.40625 Z M 0.75 0 "/></g></g></g><g fill="#b9f1d6" fill-opacity="1"><g transform="translate(124.895223, 31.079926)"><g><path d="M 1.578125 -0.96875 L 0.75 -0.96875 L 0.75 0 L 0.21875 0 L 0.21875 -2.40625 L 1.609375 -2.40625 L 1.609375 -1.921875 L 0.75 -1.921875 L 0.75 -1.453125 L 1.578125 -1.453125 Z M 1.578125 -0.96875 "/></g></g></g><g fill="#b9f1d6" fill-opacity="1"><g transform="translate(127.00026, 31.079926)"><g><path d="M 1.609375 -0.484375 L 1.609375 0 L 0.21875 0 L 0.21875 -2.40625 L 1.609375 -2.40625 L 1.609375 -1.921875 L 0.75 -1.921875 L 0.75 -1.453125 L 1.578125 -1.453125 L 1.578125 -0.96875 L 0.75 -0.96875 L 0.75 -0.484375 Z M 1.609375 -0.484375 "/></g></g></g><g fill="#b9f1d6" fill-opacity="1"><g transform="translate(129.140793, 31.079926)"><g><path d="M 0.75 -0.859375 L 0.75 0 L 0.21875 0 L 0.21875 -2.40625 L 1.125 -2.40625 C 1.25 -2.40625 1.367188 -2.375 1.484375 -2.3125 C 1.597656 -2.25 1.6875 -2.160156 1.75 -2.046875 C 1.820312 -1.929688 1.859375 -1.796875 1.859375 -1.640625 C 1.859375 -1.503906 1.832031 -1.382812 1.78125 -1.28125 C 1.726562 -1.175781 1.660156 -1.085938 1.578125 -1.015625 C 1.492188 -0.953125 1.40625 -0.910156 1.3125 -0.890625 L 2 0 L 1.328125 0 Z M 1.03125 -2 L 0.75 -2 L 0.75 -1.28125 L 1.03125 -1.28125 C 1.101562 -1.28125 1.171875 -1.3125 1.234375 -1.375 C 1.304688 -1.4375 1.34375 -1.523438 1.34375 -1.640625 C 1.34375 -1.753906 1.304688 -1.84375 1.234375 -1.90625 C 1.171875 -1.96875 1.101562 -2 1.03125 -2 Z M 1.03125 -2 "/></g></g></g><g fill="#b9f1d6" fill-opacity="1"><g transform="translate(131.412668, 31.079926)"><g><path d="M 1.609375 -0.484375 L 1.609375 0 L 0.21875 0 L 0.21875 -2.40625 L 1.609375 -2.40625 L 1.609375 -1.921875 L 0.75 -1.921875 L 0.75 -1.453125 L 1.578125 -1.453125 L 1.578125 -0.96875 L 0.75 -0.96875 L 0.75 -0.484375 Z M 1.609375 -0.484375 "/></g></g></g><g fill="#b9f1d6" fill-opacity="1"><g transform="translate(133.553201, 31.079926)"><g><path d="M 2.109375 0 L 1.578125 0 L 0.75 -1.5 L 0.75 0 L 0.21875 0 L 0.21875 -2.40625 L 0.75 -2.40625 L 1.578125 -0.90625 L 1.578125 -2.40625 L 2.109375 -2.40625 Z M 2.109375 0 "/></g></g></g><g fill="#b9f1d6" fill-opacity="1"><g transform="translate(136.190706, 31.079926)"><g><path d="M 1.953125 -0.8125 L 2.546875 -0.8125 C 2.492188 -0.65625 2.410156 -0.515625 2.296875 -0.390625 C 2.191406 -0.265625 2.066406 -0.164062 1.921875 -0.09375 C 1.773438 -0.0195312 1.613281 0.0195312 1.4375 0.03125 L 1.328125 0.25 C 1.378906 0.238281 1.425781 0.238281 1.46875 0.25 C 1.519531 0.257812 1.554688 0.285156 1.578125 0.328125 C 1.609375 0.378906 1.628906 0.429688 1.640625 0.484375 C 1.648438 0.546875 1.640625 0.609375 1.609375 0.671875 C 1.578125 0.753906 1.519531 0.8125 1.4375 0.84375 C 1.351562 0.875 1.265625 0.882812 1.171875 0.875 C 1.078125 0.875 0.984375 0.859375 0.890625 0.828125 L 0.875 0.8125 L 0.96875 0.609375 L 0.984375 0.625 C 1.035156 0.632812 1.085938 0.644531 1.140625 0.65625 C 1.203125 0.664062 1.253906 0.660156 1.296875 0.640625 C 1.335938 0.628906 1.363281 0.609375 1.375 0.578125 C 1.394531 0.546875 1.398438 0.515625 1.390625 0.484375 C 1.378906 0.460938 1.351562 0.445312 1.3125 0.4375 C 1.269531 0.425781 1.226562 0.425781 1.1875 0.4375 C 1.144531 0.445312 1.101562 0.453125 1.0625 0.453125 L 1.015625 0.46875 L 1.21875 0.03125 C 1.0625 0.0078125 0.914062 -0.0351562 0.78125 -0.109375 C 0.65625 -0.179688 0.539062 -0.269531 0.4375 -0.375 C 0.34375 -0.488281 0.265625 -0.613281 0.203125 -0.75 C 0.148438 -0.894531 0.125 -1.046875 0.125 -1.203125 C 0.125 -1.378906 0.15625 -1.539062 0.21875 -1.6875 C 0.28125 -1.832031 0.367188 -1.960938 0.484375 -2.078125 C 0.597656 -2.191406 0.726562 -2.28125 0.875 -2.34375 C 1.03125 -2.414062 1.191406 -2.453125 1.359375 -2.453125 C 1.546875 -2.453125 1.71875 -2.414062 1.875 -2.34375 C 2.03125 -2.269531 2.164062 -2.164062 2.28125 -2.03125 C 2.40625 -1.90625 2.492188 -1.757812 2.546875 -1.59375 L 1.953125 -1.59375 C 1.898438 -1.707031 1.816406 -1.796875 1.703125 -1.859375 C 1.597656 -1.921875 1.484375 -1.953125 1.359375 -1.953125 C 1.234375 -1.953125 1.113281 -1.914062 1 -1.84375 C 0.894531 -1.78125 0.8125 -1.691406 0.75 -1.578125 C 0.6875 -1.460938 0.65625 -1.335938 0.65625 -1.203125 C 0.65625 -1.066406 0.6875 -0.941406 0.75 -0.828125 C 0.8125 -0.710938 0.894531 -0.625 1 -0.5625 C 1.113281 -0.5 1.234375 -0.46875 1.359375 -0.46875 C 1.484375 -0.46875 1.597656 -0.5 1.703125 -0.5625 C 1.816406 -0.625 1.898438 -0.707031 1.953125 -0.8125 Z M 1.953125 -0.8125 "/></g></g></g><g fill="#b9f1d6" fill-opacity="1"><g transform="translate(139.144144, 31.079926)"><g><path d="M 1.53125 -0.921875 L 1.21875 -1.78125 L 0.921875 -0.921875 Z M 2.421875 0 L 1.859375 0 L 1.6875 -0.484375 L 0.765625 -0.484375 L 0.59375 0 L 0.015625 0 L 1 -2.40625 L 1.453125 -2.40625 Z M 2.421875 0 "/></g></g></g><g fill="#b9f1d6" fill-opacity="1"><g transform="translate(141.908652, 31.079926)"><g/></g></g></svg>